<?xml version="1.0" encoding="UTF-8"?>
<svg version="1.1" xmlns="http://www.w3.org/2000/svg" width="4167" height="4167">
<path d="M0 0 C1375.11 0 2750.22 0 4167 0 C4167 1375.11 4167 2750.22 4167 4167 C2791.89 4167 1416.78 4167 0 4167 C0 2791.89 0 1416.78 0 0 Z " fill="#050505" transform="translate(0,0)"/>
<path d="M0 0 C0.97119582 -0.00467997 0.97119582 -0.00467997 1.96201175 -0.00945449 C4.1302798 -0.01742716 6.29826738 -0.01111336 8.46653748 -0.00482178 C10.02248803 -0.00753237 11.57843731 -0.01109368 13.13438416 -0.01544189 C17.36465886 -0.02457142 21.59483614 -0.02101632 25.82511258 -0.01468372 C30.26718991 -0.00961317 34.709259 -0.01431936 39.15133667 -0.01745605 C46.62734974 -0.02109831 54.10332336 -0.01629575 61.57933044 -0.0067749 C70.17801603 0.00405048 78.77660633 0.00062849 87.3752895 -0.01042771 C94.78198347 -0.01956493 102.18864907 -0.02075292 109.59534687 -0.01555037 C114.00741341 -0.01245805 118.41943555 -0.01194363 122.8314991 -0.01862335 C190.69279503 -0.10710405 190.69279503 -0.10710405 210.72215271 18.62896729 C218.53796907 27.29497741 221.75807902 37.48582299 221.82518005 49.02423096 C221.83189728 49.7555423 221.8386145 50.48685364 221.84553528 51.24032593 C221.86437717 53.63426704 221.86843279 56.02792559 221.87059021 58.42193604 C221.87702908 60.10571909 221.88375823 61.78950106 221.89076233 63.47328186 C221.90270164 66.99598784 221.90644675 70.51859603 221.90525818 74.0413208 C221.9050555 78.52184227 221.93232006 83.00172589 221.9668026 87.48209667 C221.98921042 90.95944511 221.99309146 94.43664359 221.99203873 97.91405678 C221.9943753 99.564031 222.00308718 101.21401061 222.01870346 102.86391258 C222.14742248 117.87111565 220.14384338 130.80044656 209.53465271 142.25396729 C193.42261881 156.5757752 169.40310714 159.39127504 148.64085388 159.4151001 C147.58901917 159.420065 146.53718445 159.42502991 145.45347595 159.43014526 C141.99485095 159.44467353 138.53627189 159.45155541 135.07762146 159.45709229 C133.8862237 159.45991966 132.69482594 159.46274704 131.46732521 159.4656601 C125.15488593 159.4806195 118.84246928 159.48986786 112.53001404 159.49420166 C106.06284269 159.49966294 99.59588435 159.52365087 93.12877941 159.55217361 C88.11049836 159.57095723 83.09226684 159.57601402 78.07395363 159.57753754 C75.69292863 159.58053228 73.31190382 159.58845079 70.93091393 159.60172272 C47.84515156 159.7211592 22.08436293 159.22339623 2.53465271 145.25396729 C0.92590271 144.10927979 0.92590271 144.10927979 -0.71534729 142.94146729 C-10.15125319 133.72001379 -13.57881411 122.86513435 -13.72808838 109.95025635 C-13.74189508 108.47095187 -13.75263246 106.99161599 -13.76051331 105.51226807 C-13.7719601 104.02096005 -13.79229451 102.52969059 -13.82203674 101.03863525 C-14.11325615 86.41258773 -11.81745328 75.14710038 -1.53565979 64.19927979 C19.20307076 44.0682776 52.5886283 45.94860532 79.31684804 45.84925032 C83.02706215 45.83342081 86.73719904 45.80669602 90.44735718 45.78121948 C97.44495665 45.73477725 104.44257122 45.69786813 111.44024414 45.66454661 C119.41876939 45.6260781 127.39721642 45.57673442 135.37567532 45.52656245 C151.76194461 45.42375779 168.14825766 45.33433324 184.53465271 45.25396729 C181.67861252 39.33831067 179.52227642 36.89944254 173.53465271 34.25396729 C159.74838161 29.81213395 145.11149937 30.1060972 130.78025818 30.11212158 C129.25760804 30.10908064 127.73495881 30.10555665 126.21231079 30.10159302 C122.96531452 30.09378251 119.71832884 30.08858954 116.47132492 30.08530235 C111.33591687 30.0793359 106.20057602 30.06274915 101.06520081 30.04396057 C99.3002682 30.037626 97.53533557 30.03130035 95.77040291 30.02498341 C94.44612168 30.02023469 94.44612168 30.02023469 93.09508729 30.01539004 C81.16023991 29.97342635 69.22542858 29.94027424 57.29051208 29.92803955 C49.2074989 29.9196691 41.12465734 29.89723338 33.04173005 29.85868388 C28.77275985 29.83892198 24.50404619 29.82651989 20.23502731 29.83151817 C16.2308888 29.83615141 12.22723964 29.82243281 8.22319984 29.79450607 C6.75423222 29.78757725 5.28521416 29.78748591 3.81624794 29.79470634 C1.81278317 29.80356124 -0.19074688 29.78559066 -2.19413757 29.76622009 C-3.31529024 29.76383174 -4.43644291 29.76144339 -5.5915699 29.75898266 C-9.133529 29.13654621 -10.2876168 28.06385946 -12.46534729 25.25396729 C-13.66201932 21.66395119 -13.6707361 18.66348339 -13.71534729 14.87896729 C-13.74112854 13.57185791 -13.76690979 12.26474854 -13.79347229 10.91802979 C-13.44788696 7.05899357 -12.87952461 5.24450226 -10.46534729 2.25396729 C-7.01940044 -0.00733055 -4.06164846 0.00264275 0 0 Z " fill="#444A52" transform="translate(2530.465347290039,1998.7460327148438)"/>
<path d="M0 0 C0.64902387 -0.00397441 1.29804774 -0.00794881 1.966739 -0.01204365 C4.13436727 -0.02164197 6.30133875 -0.0098634 8.46894836 0.00190735 C10.02666975 -0.00052175 11.58438957 -0.00424222 13.1421051 -0.00915527 C17.37230476 -0.01856189 21.60227286 -0.00913532 25.83245444 0.00417686 C30.27499141 0.01551814 34.7175174 0.0113811 39.1600647 0.00942993 C46.63432066 0.00854661 54.10848602 0.01962542 61.5827179 0.03804016 C70.18201742 0.05910775 78.78118328 0.06273936 87.38050336 0.0564782 C95.68477598 0.05074451 103.98900226 0.05648345 112.2932682 0.06765175 C115.80912459 0.0722554 119.32495223 0.07319004 122.84081078 0.0710659 C127.00478306 0.06915565 131.16862316 0.07749247 135.33256531 0.0931263 C136.84564478 0.09730358 138.35873785 0.09826513 139.87182045 0.0954361 C147.94809226 0.08264827 155.89790162 0.40091588 163.93069458 1.27810669 C164.65445272 1.35708936 165.37821086 1.43607204 166.12390107 1.51744813 C183.93018873 3.63640329 202.34110881 8.8599958 214.06001282 23.2882843 C219.5395197 31.769608 221.51425138 40.60099476 221.56880188 50.56611633 C221.57376678 51.25972763 221.57873169 51.95333893 221.58384705 52.66796875 C221.59837093 54.94766764 221.60525568 57.22729687 221.61079407 59.5070343 C221.61503513 60.68437952 221.61503513 60.68437952 221.61936188 61.88550949 C221.634318 66.0425576 221.64356894 70.19957135 221.64790344 74.35664368 C221.65337036 78.61972471 221.67737081 82.88248351 221.7058754 87.14546394 C221.72463713 90.45033135 221.7297146 93.75512339 221.73123932 97.06003952 C221.73423798 98.62989429 221.74217045 100.19974864 221.7554245 101.76955032 C221.8715117 116.58067893 220.23039808 129.93971092 210.09516907 141.4367218 C190.12468519 160.24351207 158.98287708 159.69245191 133.48579407 159.67500305 C131.09034655 159.67890105 128.69489971 159.68323794 126.29945374 159.68798828 C121.30034638 159.69540861 116.30130971 159.69519002 111.30220032 159.68989563 C104.95067302 159.68410989 98.59943818 159.70103134 92.24795914 159.7242403 C87.30602883 159.73909648 82.36416701 159.73983326 77.42221832 159.73673058 C75.08306551 159.73723794 72.74390825 159.74236337 70.40477753 159.7525425 C46.47436111 159.84391542 16.85393795 159.38685211 -1.96733093 142.20625305 C-9.97710595 133.65169555 -13.89030482 124.25666517 -13.92826843 112.45625305 C-13.93492523 111.7177562 -13.94158203 110.97925934 -13.94844055 110.21838379 C-13.95850952 108.66285162 -13.96325937 107.10727676 -13.9629364 105.55171204 C-13.96728787 103.20989524 -14.00360501 100.87000037 -14.04154968 98.52851868 C-14.14168575 85.33681663 -12.13381629 74.19000038 -2.59233093 64.3742218 C19.0015065 44.36610893 51.89360613 46.06227263 79.1898644 46.17143393 C82.90002646 46.18409558 86.61019319 46.18512376 90.32037354 46.18748474 C97.31803312 46.19365483 104.31562881 46.21000384 111.3132605 46.23018372 C119.29172846 46.25268352 127.27019979 46.26357124 135.24869168 46.27357459 C151.63505463 46.29437507 168.02135365 46.3294622 184.40766907 46.3742218 C183.79406759 45.07531019 183.17219426 43.78030388 182.54682922 42.48701477 C182.02870163 41.40467056 182.02870163 41.40467056 181.50010681 40.30046082 C178.81750374 35.57036546 172.97056353 34.13888868 168.02485657 32.6632843 C155.87581487 29.89667085 143.03767931 30.22912724 130.65327454 30.24824524 C129.13062488 30.2468462 127.60797562 30.24494413 126.08532715 30.24258423 C122.83832868 30.23813114 119.59134271 30.23623214 116.34434128 30.23612213 C111.20893466 30.23497125 106.07359816 30.22206147 100.93821716 30.20655823 C100.0678724 30.20398537 99.19752764 30.20141252 98.30080879 30.1987617 C96.52324035 30.19349705 94.74567197 30.18821157 92.96810365 30.18290567 C81.03323277 30.14788595 69.09845519 30.1212571 57.16352844 30.12373352 C49.08049324 30.1253204 40.99770298 30.1093428 32.9147464 30.0730269 C28.64571951 30.05456757 24.3771019 30.04522565 20.10804367 30.05750275 C16.10382282 30.06891192 12.10033882 30.05730183 8.0962162 30.02786827 C6.6272458 30.02121483 5.15820821 30.0231166 3.6892643 30.03416634 C1.68582927 30.04798907 -0.31775393 30.02823521 -2.32112122 30.00672913 C-3.44227388 30.00526257 -4.56342655 30.00379601 -5.71855354 30.002285 C-8.59233093 29.3742218 -8.59233093 29.3742218 -10.93813896 26.96042252 C-14.88364533 20.79192964 -14.12401313 13.41931074 -12.90483093 6.4367218 C-10.38005918 0.5455877 -5.97767678 -0.00086494 0 0 Z " fill="#444A52" transform="translate(1774.5923309326172,1998.6257781982422)"/>
<path d="M0 0 C0.77397925 -0.00115384 1.5479585 -0.00230769 2.34539166 -0.0034965 C4.94817909 -0.00615091 7.5509051 -0.00165064 10.15368938 0.00279331 C12.03478897 0.00235737 13.91588851 0.00148204 15.79698771 0.00020415 C20.97341478 -0.0020363 26.14982123 0.00197436 31.32624567 0.00698221 C36.90562368 0.01129294 42.48500049 0.00983984 48.06437969 0.00907993 C57.73347341 0.0085551 67.40256039 0.01169772 77.07165241 0.01731777 C91.0516087 0.02543818 105.03156172 0.02804855 119.01152011 0.02930576 C141.69202458 0.03149543 164.37252485 0.03814463 187.05302715 0.04760838 C209.08753217 0.05679196 231.12203623 0.06387599 253.15654278 0.06811619 C253.83568059 0.06824771 254.5148184 0.06837924 255.21453614 0.06851475 C262.034685 0.06983327 268.85483386 0.07110908 275.67498274 0.07235361 C332.87627674 0.08279562 390.07756682 0.10044274 447.27885723 0.12304783 C447.27885723 4.74304783 447.27885723 9.36304783 447.27885723 14.12304783 C445.84675165 14.12451304 445.84675165 14.12451304 444.38571465 14.12600785 C387.81076188 14.18415433 331.23584718 14.25805208 274.66094209 14.35203411 C267.86919265 14.3633125 261.07744297 14.37444428 254.28569317 14.385499 C253.60983702 14.38660157 252.93398087 14.38770413 252.23764423 14.38884011 C230.33622804 14.42450052 208.43481339 14.45048206 186.53337861 14.47143751 C163.38611979 14.49363761 140.23889897 14.52688087 117.09167087 14.57174939 C103.22636893 14.59826938 89.36111324 14.61596221 75.49578719 14.62239387 C65.99014685 14.62764666 56.48456473 14.64386006 46.97895558 14.66871349 C41.49326652 14.68273208 36.0076817 14.6918979 30.52197361 14.68805599 C25.49807955 14.6846442 20.47440808 14.69501989 15.4505596 14.71628334 C13.63478895 14.72154885 11.81899516 14.72178866 10.00322475 14.71644346 C-6.35083392 14.67321139 -18.79935832 16.97680125 -30.90864277 28.68554783 C-41.89794654 39.78667138 -45.0437399 52.44492587 -44.98183918 67.69111729 C-44.98566473 68.70729372 -44.98949027 69.72347015 -44.99343175 70.7704398 C-45.00368903 74.15015523 -44.99978345 77.52969845 -44.99580097 80.90942478 C-45.00015149 83.34297943 -45.00533577 85.77653271 -45.01128864 88.21008396 C-45.02326759 94.11933176 -45.02583438 100.02853737 -45.02348838 105.9377927 C-45.02170038 110.74484665 -45.02346516 115.55188686 -45.02771282 120.35893917 C-45.02830801 121.04489582 -45.0289032 121.73085247 -45.02951642 122.43759569 C-45.03072827 123.83143885 -45.0319424 125.225282 -45.0331588 126.61912515 C-45.04401892 139.67165601 -45.0418792 152.724161 -45.03577396 165.77669331 C-45.03060716 177.69481591 -45.04185668 189.61285673 -45.06087217 201.53096316 C-45.08028533 213.7931148 -45.08850043 226.05522782 -45.08474892 238.31739491 C-45.08284202 245.19176564 -45.08527434 252.06606679 -45.09946346 258.94042492 C-45.11267781 265.4075311 -45.11007015 271.87451489 -45.09705257 278.34162235 C-45.09469351 280.70824267 -45.09739732 283.07487458 -45.1056757 285.44148159 C-45.16683285 304.29162443 -44.67287901 320.7285468 -31.22114277 335.37304783 C-16.40682293 349.36311228 0.88122503 349.42208785 20.07712078 349.40152073 C22.20263913 349.40652751 24.32815558 349.41240442 26.45366937 349.41907346 C32.27783369 349.43484117 38.10194972 349.43830237 43.9261328 349.43972206 C50.21299235 349.44342174 56.4998256 349.45858007 62.78666973 349.47233677 C73.67357709 349.49459556 84.56047153 349.50968641 95.44739628 349.51970387 C106.86223301 349.53023725 118.27705236 349.5448815 129.69187641 349.56498432 C130.75753605 349.56685762 130.75753605 349.56685762 131.84472418 349.56876877 C135.45286878 349.57513275 139.06101324 349.58156988 142.66915766 349.58803515 C168.20807515 349.63366575 193.74699828 349.67012713 219.28593731 349.70117283 C244.09258635 349.73134938 268.89922391 349.76569377 293.70585918 349.80566502 C294.47086308 349.80689602 295.23586697 349.80812702 296.02405281 349.80939533 C303.70672127 349.82176247 311.3893896 349.83421416 319.07205784 349.84672781 C334.72174479 349.87221634 350.37143262 349.89714054 366.02112103 349.92172337 C366.74062665 349.92285427 367.46013228 349.92398518 368.20144111 349.92515036 C416.22723325 350.00057197 464.25304392 350.06279862 512.27885723 350.12304783 C512.27885723 354.74304783 512.27885723 359.36304783 512.27885723 364.12304783 C463.44505913 364.1572903 414.6112602 364.18913079 365.77745342 364.20773411 C364.6930308 364.20814828 364.6930308 364.20814828 363.58670066 364.20857082 C347.87445201 364.21455687 332.16220323 364.2200972 316.44995426 364.22517849 C308.74448439 364.22767312 301.03901455 364.23026624 293.33354473 364.23291111 C292.18337468 364.23330339 292.18337468 364.23330339 291.00996887 364.23370359 C266.1639113 364.24222373 241.31786285 364.25724446 216.4718108 364.27564227 C190.93570164 364.29451667 165.39959753 364.30682086 139.86348151 364.31087781 C136.25529955 364.3114541 132.6471176 364.31210538 129.03893566 364.31280231 C128.32880539 364.31293716 127.61867512 364.31307201 126.88702575 364.31321094 C115.46359884 364.31557283 104.04018753 364.3248448 92.61676698 364.3367119 C81.12770683 364.34849931 69.63866818 364.35281883 58.14960107 364.35005058 C51.92647767 364.34876889 45.70339998 364.35074171 39.48028469 364.36145878 C33.78032991 364.37120317 28.08045152 364.37167494 22.38049319 364.36484562 C20.3210724 364.36400175 18.26164681 364.36652867 16.20223543 364.37281419 C-3.54248415 364.42956111 -20.66349595 362.8307373 -36.72114277 350.12304783 C-37.40692402 349.62418064 -38.09270527 349.12531345 -38.79926777 348.61132908 C-51.55519588 338.64262148 -57.55599896 322.65806771 -59.72114277 307.12304783 C-59.97199453 303.53308986 -59.99638086 299.96326065 -59.98183918 296.36552525 C-59.98566473 295.34103285 -59.98949027 294.31654046 -59.99343175 293.26100284 C-60.00367588 289.85908861 -59.999786 286.45734588 -59.99580097 283.05542088 C-60.00015221 280.60363707 -60.00533673 278.15185463 -60.01128864 275.7000742 C-60.02326094 269.74985376 -60.02583535 263.79967523 -60.02348838 257.84944733 C-60.02169954 253.00857772 -60.02346694 248.16772174 -60.02771282 243.32685375 C-60.02830801 242.63577059 -60.0289032 241.94468743 -60.02951642 241.23266235 C-60.03072828 239.82835246 -60.03194241 238.42404258 -60.0331588 237.01973269 C-60.04401593 223.87274235 -60.0418806 210.72577771 -60.03577396 197.57878593 C-60.03060721 185.57733785 -60.04185708 173.57597099 -60.06087217 161.57453897 C-60.08029036 149.22307992 -60.08849956 136.87165922 -60.08474892 124.52018481 C-60.08284281 117.5971718 -60.08526658 110.67422787 -60.09946346 103.75122738 C-60.11268563 97.23814169 -60.11006338 90.72517747 -60.09705257 84.21209049 C-60.09469509 81.8297638 -60.09739159 79.44742557 -60.1056757 77.06511211 C-60.18100561 53.70710082 -57.66563786 34.72477162 -41.15864277 16.99804783 C-33.35397485 9.44322446 -23.32335981 3.67348175 -12.72114277 1.12304783 C-12.01486644 0.95083715 -11.3085901 0.77862648 -10.58091146 0.6011973 C-7.04135402 0.00938807 -3.57650979 -0.01310685 0 0 Z " fill="#4B5158" transform="translate(1373.7211427688599,1896.8769521713257)"/>
<path d="M0 0 C57.7259889 -0.09157545 115.45197116 -0.16205696 173.17801837 -0.20426132 C179.9946556 -0.20925049 186.81129268 -0.21443673 193.62792969 -0.21972656 C194.30625249 -0.2202496 194.98457528 -0.22077263 195.68345332 -0.22131152 C217.65394177 -0.23834468 239.62438896 -0.26838076 261.59485243 -0.30518888 C284.82082036 -0.34402957 308.04676375 -0.36799238 331.27276647 -0.37635398 C345.18109432 -0.38183967 359.08930368 -0.39915967 372.99759506 -0.43166587 C382.53782175 -0.45282595 392.07798727 -0.45919663 401.61823572 -0.45400551 C407.12067538 -0.45144609 412.62290813 -0.45534203 418.1253109 -0.4768219 C423.16917231 -0.49636741 428.21268876 -0.4972182 433.25656645 -0.48359558 C435.07511465 -0.48191331 436.89368487 -0.48691937 438.71219011 -0.49953273 C458.58695658 -0.62929927 474.70715793 3.88648925 489.26953125 18.14453125 C500.92595628 30.33458375 506.3248186 45.09390662 506.26069641 61.78985596 C506.26452196 62.85403173 506.26834751 63.91820751 506.27228898 65.01463103 C506.28258037 68.56872402 506.27863409 72.12265429 506.2746582 75.67675781 C506.27900686 78.229865 506.28419052 80.78297088 506.29014587 83.33607483 C506.30214229 89.54472291 506.30468903 95.75331134 506.30234561 101.96196875 C506.30055967 107.01173721 506.302318 112.06149257 506.30657005 117.11125946 C506.30716524 117.83108015 506.30776043 118.55090084 506.30837366 119.29253428 C506.30958547 120.75507023 506.3107996 122.21760618 506.31201603 123.68014213 C506.32288417 137.38597688 506.32073278 151.091787 506.31463119 164.79762313 C506.30946517 177.31793385 506.32071043 189.83816669 506.33972941 202.35846201 C506.35913396 215.23188185 506.36735906 228.10526489 506.36360615 240.97869945 C506.36169776 248.19903422 506.36414613 255.41930275 506.37832069 262.63962555 C506.39152182 269.43256714 506.38893898 276.2253282 506.37590981 283.01827812 C506.37354797 285.50625855 506.37626454 287.99424998 506.38453293 290.48221779 C506.39503534 293.88906056 506.38687119 297.29538484 506.3742218 300.70220947 C506.38159609 301.67733592 506.38897037 302.65246237 506.39656812 303.65713811 C506.26230594 320.94866222 499.19595617 334.97402231 487 347 C486.36320312 347.64710938 485.72640625 348.29421875 485.0703125 348.9609375 C472.93670244 360.4903844 456.4022811 364.17623908 440.14257145 364.12304783 C439.27004721 364.12420167 438.39752298 364.12535552 437.49855861 364.12654433 C434.57259262 364.12919283 431.64668156 364.12470336 428.72071838 364.12025452 C426.60277908 364.12069058 424.48483983 364.12156613 422.36690086 364.12284368 C416.54510364 364.12508175 410.72332479 364.12107672 404.90152991 364.11606562 C398.62415735 364.11175148 392.34678585 364.11320823 386.06941223 364.1139679 C375.19279769 364.11449252 364.31619 364.11138704 353.4395771 364.10573006 C342.03260838 364.09981244 330.62564205 364.09596399 319.2186718 364.09487724 C318.15467924 364.09477413 318.15467924 364.09477413 317.06919188 364.09466894 C313.4668516 364.09433061 309.86451131 364.09402922 306.26217102 364.09374207 C280.74875366 364.09164182 255.23533943 364.08490491 229.72192383 364.07543945 C204.93644223 364.06625467 180.15096148 364.05917123 155.36547852 364.05493164 C154.60144257 364.05480011 153.83740663 364.05466859 153.05021808 364.05453308 C145.37743466 364.05321455 137.70465124 364.05193874 130.03186781 364.05069422 C114.40161117 364.04815802 98.77135458 364.04533677 83.14109802 364.04234314 C82.42244872 364.04220585 81.70379942 364.04206856 80.96337287 364.04192711 C32.97558059 364.0327269 -15.01220986 364.01686095 -63 364 C-63 359.38 -63 354.76 -63 350 C-61.92367587 349.99902319 -60.84735174 349.99804638 -59.73841172 349.99703997 C-12.29192131 349.95378431 35.15456353 349.90682324 82.60102844 349.84101868 C83.31960958 349.84002311 84.03819073 349.83902754 84.77854706 349.83800181 C100.39612929 349.81634209 116.01371052 349.79401931 131.63129083 349.77101372 C139.2904079 349.75973543 146.94952518 349.74860363 154.60864258 349.73754883 C155.37080733 349.73644626 156.13297208 349.7353437 156.91823273 349.73420772 C181.61178516 349.69855408 206.30533625 349.67256899 230.99890517 349.65161031 C256.379707 349.63001719 281.76047847 349.59864486 307.14125243 349.55500887 C310.72803157 349.54884684 314.3148109 349.54279632 317.90159035 349.53681374 C318.96046044 349.53504241 318.96046044 349.53504241 320.04072185 349.53323531 C331.393277 349.51453085 342.74581752 349.50610207 354.09838619 349.50153876 C365.51803666 349.49672836 376.93762061 349.4807977 388.35724541 349.45433434 C394.54201986 349.44032567 400.726702 349.43114624 406.9114933 349.43499184 C412.57763082 349.43840808 418.24357135 349.42800224 423.90966854 349.40676448 C425.95563997 349.40150671 428.00163191 349.40125101 430.04760309 349.40660437 C448.65750352 349.45032452 464.60301051 347.857059 478.7421875 334.44921875 C487.60417308 324.83595757 491.62739797 312.86486626 491.50793457 299.96327209 C491.51417453 298.9087837 491.5204145 297.85429531 491.52684355 296.76785272 C491.54269008 293.26435413 491.53020156 289.76155935 491.51757812 286.25805664 C491.52300295 283.73406064 491.53012763 281.2100678 491.53881836 278.68608093 C491.55512595 272.5599931 491.55279209 266.43416223 491.5411678 260.3080712 C491.53210768 255.32558275 491.53092058 250.34314917 491.53526306 245.36065483 C491.53618246 244.29402263 491.53618246 244.29402263 491.53712043 243.2058423 C491.53839943 241.76094193 491.53969628 240.31604158 491.5410108 238.87114125 C491.55239814 225.3440937 491.53933239 211.81715484 491.51780933 198.29012512 C491.49994387 186.70353485 491.50304145 175.11710495 491.52148438 163.53051758 C491.54293048 150.05104846 491.55129562 136.57167448 491.53903532 123.09219068 C491.53776123 121.65251411 491.53650374 120.21283753 491.53526306 118.77316093 C491.53464596 118.0649539 491.53402886 117.35674686 491.53339306 116.627079 C491.52995106 111.65572625 491.53574364 106.68443424 491.54518127 101.7130909 C491.55762548 95.01115258 491.54866082 88.30956211 491.52560425 81.60763741 C491.52033245 79.15352376 491.52180458 76.69938457 491.53065491 74.24528122 C491.58919674 56.35776947 490.66986419 41.98343279 478.19140625 27.96875 C469.25308237 19.49499597 457.31354317 14.67517538 445.06399632 14.73828697 C444.29108613 14.73429091 443.51817594 14.73029485 442.72184423 14.72617769 C440.13469302 14.71521813 437.54775622 14.71840263 434.96058655 14.7215271 C433.08600814 14.71652341 431.2114319 14.7106474 429.33685869 14.70397437 C424.18775015 14.68816925 419.03869617 14.6847434 413.8895663 14.68332577 C408.33611107 14.67963263 402.78268579 14.66447757 397.22924805 14.65071106 C387.60821407 14.62843172 377.98719074 14.61342248 368.36613655 14.60334396 C354.45569121 14.58876161 340.54528296 14.56322601 326.63485938 14.53501268 C304.06639652 14.48953664 281.49792954 14.45290813 258.92944336 14.421875 C237.00560569 14.39170723 215.08178104 14.35736692 193.15795898 14.31738281 C192.48207234 14.31615181 191.80618569 14.31492081 191.10981764 14.3136525 C184.32223467 14.30128556 177.53465186 14.28883384 170.74706916 14.27632002 C113.83139776 14.17139625 56.91571048 14.08077177 0 14 C0 9.38 0 4.76 0 0 Z " fill="#4B5158" transform="translate(2346,1897)"/>
<path d="M0 0 C0.82602874 -0.00467997 1.65205747 -0.00935994 2.50311738 -0.01418173 C5.27521551 -0.02616196 8.04682202 -0.01666254 10.81892395 -0.00723267 C12.8048888 -0.01129718 14.7908514 -0.01663838 16.77680969 -0.02316284 C22.17582147 -0.03686097 27.5746616 -0.03152628 32.97367644 -0.02202559 C38.6242709 -0.01443665 44.27485053 -0.02147296 49.92544556 -0.02618408 C59.42072692 -0.0316461 68.91593835 -0.02444065 78.41120911 -0.01016235 C89.37996963 0.0061415 100.34856268 0.00089389 111.3173191 -0.01564157 C120.73658529 -0.02927177 130.15580115 -0.03116788 139.57507402 -0.02332556 C145.19967631 -0.01865447 150.82420002 -0.01800826 156.44879723 -0.02793503 C161.74214095 -0.03662383 167.03526979 -0.03054769 172.32859039 -0.01325226 C174.26794135 -0.00929664 176.20731049 -0.01040556 178.14665413 -0.01704025 C180.80162406 -0.02528312 183.45591287 -0.01490112 186.11083984 0 C186.8717583 -0.00669217 187.63267675 -0.01338433 188.41665334 -0.02027929 C193.83876461 0.03842476 198.98739974 0.91764062 203.87287903 3.38095093 C206.36446943 7.11833652 206.33081187 8.95426675 205.87287903 13.38095093 C202.7585613 18.2085437 198.44280131 21.08846867 193.81037903 24.31845093 C192.18339768 25.47244177 190.55711807 26.62742248 188.93147278 27.78329468 C187.67632874 28.6725061 187.67632874 28.6725061 186.39582825 29.5796814 C182.3530809 32.46601678 178.363981 35.4238303 174.37287903 38.38095093 C167.49654847 43.46394459 160.58253578 48.49098783 153.64241028 53.48641968 C148.19203941 57.41487198 142.77620825 61.38809614 137.37287903 65.38095093 C127.51892783 72.66054606 117.58713306 79.82925606 107.64338684 86.98544312 C98.39077479 93.64651393 89.17381253 100.35148865 80.00715637 107.13046265 C73.65664202 111.82090036 67.26158223 116.4473297 60.83381653 121.03134155 C60.13901184 121.52956421 59.44420715 122.02778687 58.72834778 122.54110718 C58.12659729 122.97044556 57.5248468 123.39978394 56.90486145 123.84213257 C55.14057621 125.1782241 53.44264722 126.55745159 51.74588013 127.97712708 C50.79778976 128.77038895 49.8496994 129.56365082 48.87287903 130.38095093 C49.66709857 130.3814957 50.46131811 130.38204046 51.27960491 130.38260174 C70.60062284 130.39756602 89.92140145 130.43999849 109.24228954 130.5130415 C118.58573202 130.54770148 127.92902681 130.57304834 137.27253723 130.57650757 C145.4159225 130.57954607 153.55904482 130.60002103 161.7023285 130.6414755 C166.01461278 130.66281773 170.32652312 130.67539993 174.6388607 130.66710472 C178.69791181 130.65957215 182.75620475 130.67535408 186.81511688 130.70901108 C188.30460946 130.71725407 189.79417729 130.71698274 191.2836628 130.70754814 C193.31817629 130.69593723 195.35279871 130.71799261 197.38720703 130.74171448 C198.52562137 130.74447986 199.6640357 130.74724524 200.83694744 130.75009441 C204.81172935 131.57604091 206.31702958 133.30469297 208.87287903 136.38095093 C210.19079802 139.57610086 210.03874558 142.88738672 210.06037903 146.31845093 C210.07455872 147.33809937 210.0887384 148.3577478 210.10334778 149.40829468 C209.79726939 153.35618711 209.09608351 156.12145479 206.29868603 159.00184917 C202.87271933 160.94955428 199.65645859 160.79217269 195.82168579 160.75517273 C195.00382416 160.75914714 194.18596253 160.76312154 193.34331721 160.76721638 C190.59884468 160.77685165 187.85488605 160.76501367 185.11042786 160.75326538 C183.14416817 160.75569303 181.17790971 160.7594121 179.21165466 160.764328 C173.86635069 160.77374731 168.52122952 160.76430111 163.1759398 160.75099587 C157.58140421 160.73968703 151.98687771 160.74378865 146.39233398 160.7457428 C136.99120598 160.74662632 127.59015 160.73553631 118.18904114 160.71713257 C107.32937117 160.69599483 96.46980696 160.69244821 85.61012059 160.69869453 C75.15993406 160.70439711 64.70978468 160.69872999 54.2596035 160.68752098 C49.81525165 160.6828837 45.37092259 160.68199742 40.92656898 160.68410683 C35.68579044 160.68599573 30.44511892 160.67783952 25.20436478 160.66204643 C23.28436539 160.65781667 21.36435512 160.65694419 19.4443531 160.65973663 C16.81578284 160.66297853 14.1875283 160.65382617 11.55899048 160.64164734 C10.80585392 160.64542666 10.05271737 160.64920599 9.27675849 160.65309983 C2.75235195 160.59992656 -4.24965264 160.1863392 -9.56462097 156.06845093 C-12.68063072 152.8004407 -14.09514549 150.84306273 -14.15446472 146.27548218 C-13.81434758 141.06907362 -12.63191323 137.35550113 -9.12712097 133.38095093 C-6.24168405 130.85712273 -3.17192075 128.62266477 -0.06462097 126.38095093 C0.82152893 125.7294104 1.70767883 125.07786987 2.62068176 124.40658569 C4.46343572 123.05292247 6.30925545 121.70342335 8.15803528 120.35800171 C10.69570863 118.50997304 13.22388972 116.64995207 15.74787903 114.78329468 C22.00308681 110.15793298 28.27302028 105.55276096 34.54866028 100.95516968 C42.99167712 94.76169155 51.37161456 88.49714531 59.68537903 82.13095093 C65.90755046 77.3668636 72.16198719 72.68051705 78.56867981 68.1680603 C84.50514157 63.97108763 90.29927222 59.58757215 96.10578918 55.21347046 C102.93187297 50.07473323 109.80003795 44.99570618 116.69392395 39.94833374 C119.78171813 37.68294061 122.82463428 35.42064761 125.78303528 32.98641968 C127.87287903 31.38095093 127.87287903 31.38095093 129.87287903 31.38095093 C129.87287903 30.72095093 129.87287903 30.06095093 129.87287903 29.38095093 C129.16019741 29.38555989 128.44751579 29.39016886 127.71323776 29.39491749 C110.3789131 29.50529841 93.0446776 29.5880595 75.71007919 29.64001179 C67.32720577 29.66580281 58.94456681 29.70097023 50.56184387 29.75814819 C43.2561656 29.80795599 35.95065711 29.84023541 28.64481378 29.8513934 C24.77567292 29.85791673 20.90701782 29.87326615 17.03803253 29.90960121 C13.39687743 29.94351984 9.75640848 29.95401264 6.1151104 29.94648933 C4.14054493 29.94852249 2.16605435 29.97543944 0.19168091 30.00305176 C-0.98338516 29.99617844 -2.15845123 29.98930511 -3.36912537 29.98222351 C-4.39047199 29.98683248 -5.41181862 29.99144144 -6.46411514 29.99619007 C-10.10856619 29.15420583 -11.13440997 27.45570878 -13.12712097 24.38095093 C-15.32998754 17.77235123 -14.67458686 9.74961564 -12.12712097 3.38095093 C-8.64979016 -0.32077075 -4.76547663 -0.04130619 0 0 Z " fill="#444B53" transform="translate(2284.1271209716797,1997.6190490722656)"/>
<path d="M0 0 C1.40005109 -0.00390345 2.80010104 -0.00824138 4.20014954 -0.01298523 C7.09660743 -0.02035043 9.99294312 -0.02022294 12.8894043 -0.01489258 C16.59243578 -0.00903416 20.29497737 -0.02622674 23.99792767 -0.04923725 C26.87273552 -0.06396801 29.74742405 -0.06484853 32.62226295 -0.06172752 C33.98856407 -0.06223857 35.35487224 -0.06743545 36.72113609 -0.07753944 C38.62223841 -0.08990646 40.52344241 -0.081166 42.42456055 -0.0715332 C43.50215134 -0.07216263 44.57974213 -0.07279205 45.68998718 -0.07344055 C49.05540839 0.3573796 50.92255991 1.25613078 53.61328125 3.30078125 C56.12688054 9.16584626 56.77289556 16.23090911 55.0078125 22.42578125 C53.87781687 25.1790701 52.72423495 27.18982755 50.61328125 29.30078125 C48.22711182 29.5657959 48.22711182 29.5657959 45.19238281 29.58789062 C44.05649719 29.60130493 42.92061157 29.61471924 41.75030518 29.62854004 C39.89583771 29.63645569 39.89583771 29.63645569 38.00390625 29.64453125 C36.73037292 29.65915405 35.4568396 29.67377686 34.14471436 29.68884277 C30.05093222 29.73548594 25.95720362 29.76988599 21.86328125 29.80078125 C17.81222682 29.83170166 13.76128663 29.86525761 9.71038818 29.91271973 C7.1882139 29.94142078 4.6659294 29.96204039 2.14361572 29.97302246 C-9.86066614 30.11021896 -20.98507848 30.47362455 -31.26171875 37.17578125 C-34.60209151 42.08809414 -34.42054213 47.53988958 -33.38671875 53.30078125 C-30.97996697 57.13857462 -28.79499805 58.98211367 -24.57421875 60.55078125 C-23.35798828 61.02257813 -23.35798828 61.02257813 -22.1171875 61.50390625 C-16.05252992 63.27384923 -10.0011933 63.45008132 -3.73950195 63.45849609 C-2.48405579 63.46611717 -2.48405579 63.46611717 -1.20324707 63.47389221 C0.60599937 63.48454745 2.4152586 63.49318639 4.22452354 63.50001144 C7.10806745 63.51190673 9.99146861 63.53139148 12.87495422 63.5531311 C21.07128991 63.61435016 29.26761254 63.66845082 37.46411133 63.70214844 C42.49091325 63.7233614 47.51745594 63.75887794 52.54410744 63.80290604 C54.43944004 63.81686705 56.33481852 63.82574229 58.23019981 63.82896042 C78.9754395 63.86787241 103.83301989 64.48776123 120.61328125 78.30078125 C121.2475 78.81253906 121.88171875 79.32429688 122.53515625 79.8515625 C129.61751979 86.19239653 133.18107461 94.9730706 133.73583984 104.37866211 C134.21865173 118.02760777 133.9601247 130.45103126 124.61328125 141.30078125 C107.9684892 157.97982184 80.23923941 159.41675062 58.07299805 159.49365234 C56.09312645 159.50591858 56.09312645 159.50591858 54.07325745 159.51843262 C49.73635838 159.54438077 45.39945082 159.55991348 41.0625 159.57421875 C39.5624828 159.57958606 38.06246563 159.58496357 36.5624485 159.5903511 C30.32645213 159.61192268 24.0904581 159.63066279 17.85443401 159.6419735 C8.9426536 159.65825251 0.03130601 159.69159058 -8.88031131 159.74837434 C-15.16504016 159.78705077 -21.44965298 159.80660229 -27.73449773 159.81189406 C-31.48222168 159.81554516 -35.22948099 159.82754379 -38.97707558 159.8599968 C-43.14945087 159.89562343 -47.32088749 159.89171262 -51.4934082 159.88427734 C-52.73142181 159.90068268 -53.96943542 159.91708801 -55.2449646 159.93399048 C-64.5509561 159.86589112 -64.5509561 159.86589112 -67.64274597 156.88589478 C-71.42077225 151.2856773 -70.88750859 144.87254963 -70.38671875 138.30078125 C-68.86178532 134.08906035 -68.10692564 132.78091917 -64.38671875 130.30078125 C-61.9483366 130.04465485 -61.9483366 130.04465485 -58.99504089 130.0357666 C-57.87523834 130.02749344 -56.75543579 130.01922028 -55.60169983 130.01069641 C-53.75734596 130.01216927 -53.75734596 130.01216927 -51.87573242 130.01367188 C-49.88814975 130.00318186 -47.90056708 129.99269143 -45.91298449 129.98218536 C-43.77398015 129.97280735 -41.63501487 129.96834317 -39.49599266 129.96525574 C-35.02657913 129.95853332 -30.5573162 129.93676265 -26.08796692 129.91271973 C-16.5834196 129.86372112 -7.07884001 129.83149642 2.42578125 129.80078125 C12.65010503 129.76764375 22.87437001 129.73139875 33.09860438 129.67665052 C37.52789687 129.65349094 41.95708633 129.63960788 46.38643324 129.63315582 C48.49007697 129.62860732 50.59364623 129.61956137 52.69726562 129.6085968 C55.24396555 129.59535307 57.79071461 129.58879482 60.33744812 129.59086609 C77.7692478 129.64893762 77.7692478 129.64893762 93.61328125 123.30078125 C96.24122421 119.73732462 96.01583719 115.62257379 96.05078125 111.36328125 C96.10008789 110.30850586 96.10008789 110.30850586 96.15039062 109.23242188 C96.19085189 105.30767961 95.78504481 103.5190948 93.3359375 100.40625 C91.02758191 98.62116584 89.34671704 97.45457857 86.61328125 96.55078125 C85.97390625 96.3290625 85.33453125 96.10734375 84.67578125 95.87890625 C79.58957502 94.45322723 74.74889764 94.14546366 69.484375 94.12719727 C68.27566742 94.11716675 68.27566742 94.11716675 67.0425415 94.10693359 C65.29492688 94.09291091 63.54729424 94.08100806 61.7996521 94.07098579 C59.01261041 94.05446118 56.22569741 94.03120917 53.4387207 94.00608826 C45.51455235 93.93570089 37.59032609 93.87586347 29.66601562 93.82397461 C24.81014567 93.79170442 19.95441658 93.75030154 15.09866333 93.70377922 C13.26834723 93.68801892 11.43799873 93.6755819 9.6076355 93.66687202 C-0.20774877 93.61956556 -9.92998372 93.29605593 -19.70703125 92.38647461 C-20.99466118 92.26780077 -20.99466118 92.26780077 -22.30830383 92.14672947 C-37.27647206 90.62856718 -53.00684882 85.74031308 -63.38671875 74.30078125 C-69.93547574 65.67518061 -70.75025976 57.6503424 -70.76171875 47.05078125 C-70.78621094 45.87386719 -70.81070312 44.69695312 -70.8359375 43.484375 C-70.87497691 31.7855652 -67.99653513 23.99008054 -59.8515625 15.5546875 C-43.96030731 1.02338125 -20.43986031 -0.0143118 0 0 Z " fill="#454B53" transform="translate(1485.38671875,1998.69921875)"/>
<path d="M0 0 C1.85546926 -0.0013536 3.71093818 -0.00329984 5.56640625 -0.00579834 C9.42190995 -0.00871702 13.27731986 -0.00455852 17.1328125 0.00488281 C22.01692171 0.01627527 26.90081092 0.00969808 31.78491211 -0.00226212 C35.60646147 -0.00956976 39.42796066 -0.00715249 43.24951172 -0.00200653 C45.0480146 -0.00069449 46.8465224 -0.00222931 48.64501953 -0.00696564 C64.03849561 -0.03863139 79.95331522 0.27270393 94.875 4.453125 C96.04458252 4.77458496 96.04458252 4.77458496 97.23779297 5.10253906 C109.74171411 8.74275823 120.95906372 14.8995891 127.84765625 26.33203125 C131.11940162 32.63574868 133.11007142 37.98537999 133.14717102 45.12316895 C133.15790398 46.54883934 133.15790398 46.54883934 133.16885376 48.00331116 C133.17154266 49.03411301 133.17423157 50.06491486 133.17700195 51.12695312 C133.18357315 52.22180527 133.19014435 53.31665741 133.19691467 54.44468689 C133.21660187 58.06208365 133.22829705 61.67943907 133.23828125 65.296875 C133.24235678 66.53272842 133.2464323 67.76858185 133.25063133 69.04188538 C133.2693219 74.90395903 133.28389604 80.76601647 133.2922433 86.62811422 C133.30202761 93.38660192 133.32838949 100.14476315 133.36874419 106.90313578 C133.40254308 112.76521905 133.41438784 118.62719265 133.41844749 124.48936462 C133.42332579 126.98048627 133.43497488 129.4716041 133.45348549 131.96266174 C133.47775345 135.44347416 133.47693465 138.92342631 133.4699707 142.40429688 C133.48918579 143.95049965 133.48918579 143.95049965 133.50878906 145.52793884 C133.47646285 149.95264418 133.45207716 152.52553961 131.10758972 156.36364746 C126.25752885 160.74054622 121.28543816 160.60352475 115.0625 160.578125 C114.27681641 160.59423828 113.49113281 160.61035156 112.68164062 160.62695312 C107.72310848 160.63110252 104.25452795 160.07450113 100 157.265625 C97.44353917 154.41466381 96.62499051 152.61722534 96.62145996 148.80081177 C96.61325729 147.91208374 96.60505463 147.02335571 96.59660339 146.10769653 C96.60275162 145.14032562 96.60889984 144.17295471 96.61523438 143.17626953 C96.6098616 142.1514447 96.60448883 141.12661987 96.59895325 140.07073975 C96.58917016 137.84562186 96.58623269 135.62046579 96.58930969 133.39532852 C96.59378223 129.87305713 96.57980252 126.35128962 96.56091309 122.82907104 C96.52409999 115.3495973 96.51041754 107.87017601 96.5 100.390625 C96.4879257 91.7304408 96.46639217 83.07050134 96.41999817 74.41042709 C96.40641889 70.9415809 96.41060093 67.4730433 96.41540527 64.00418091 C96.40606403 61.87403978 96.39589505 59.74390207 96.38476562 57.61376953 C96.39091385 56.65044708 96.39706207 55.68712463 96.40339661 54.6946106 C96.34790485 48.64413529 95.57626308 44.25355899 91.484375 39.5078125 C78.06207315 28.92716915 58.53654983 30.10604616 42.3671875 30.09765625 C40.88046235 30.09443015 39.39373749 30.09106515 37.90701294 30.08757019 C34.80583971 30.08162417 31.70469414 30.07972551 28.60351562 30.08032227 C25.46185531 30.08040338 22.32034127 30.07347834 19.17871094 30.05981445 C-15.98616077 28.04161757 -15.98616077 28.04161757 -46.5390625 41.6796875 C-48.92240225 44.26694937 -49.12733595 45.99017462 -49.14476013 49.40727234 C-49.15510788 50.70883018 -49.15510788 50.70883018 -49.16566467 52.03668213 C-49.16958473 53.46811554 -49.16958473 53.46811554 -49.17358398 54.9284668 C-49.180271 55.93188614 -49.18695801 56.93530548 -49.19384766 57.96913147 C-49.20792223 60.15390992 -49.21980857 62.33870329 -49.22979546 64.52350426 C-49.24617855 67.98274997 -49.2694171 71.44188581 -49.29469299 74.90107727 C-49.36553092 84.73860206 -49.42551598 94.57617267 -49.47680664 104.41381836 C-49.50863836 110.42676492 -49.54992955 116.43958702 -49.59700203 122.45243263 C-49.61300253 124.74368863 -49.62533309 127.03497333 -49.63390923 129.32626915 C-49.64609334 132.53624436 -49.67025823 135.74592844 -49.69702148 138.95581055 C-49.69761063 139.89997833 -49.69819977 140.84414612 -49.69880676 141.81692505 C-49.75599859 147.00629834 -50.20698723 151.37632994 -52 156.265625 C-55.99402262 160.05976642 -61.49576602 160.75916183 -66.80859375 160.76367188 C-67.57300781 160.74369141 -68.33742188 160.72371094 -69.125 160.703125 C-69.89714844 160.71021484 -70.66929688 160.71730469 -71.46484375 160.72460938 C-76.31405879 160.67091279 -79.91854691 160.12990884 -84 157.265625 C-87.58006434 151.89985795 -87.42669695 146.9707811 -87.38818359 140.75317383 C-87.39344055 139.7068277 -87.39869751 138.66048157 -87.40411377 137.58242798 C-87.41729852 134.12901807 -87.40857754 130.67607074 -87.3984375 127.22265625 C-87.40045943 124.81377576 -87.40337185 122.40489586 -87.40713501 119.99601746 C-87.41155696 114.94642308 -87.4051341 109.89698796 -87.39111328 104.84741211 C-87.37406765 98.39604581 -87.38383436 91.94505524 -87.40183067 85.49370289 C-87.41271113 80.51693431 -87.40920183 75.54025362 -87.4014473 70.56348228 C-87.39945468 68.18619428 -87.40187137 65.80889814 -87.40888596 63.43161964 C-87.41656536 60.09588373 -87.40480331 56.76074097 -87.38818359 53.42504883 C-87.39425629 52.45479263 -87.40032898 51.48453644 -87.40658569 50.48487854 C-87.29779963 38.60777163 -84.0154007 28.09793197 -76.1015625 19.109375 C-56.29836972 -0.03125742 -25.77012023 -0.0678654 0 0 Z " fill="#444B53" transform="translate(2109,1998.734375)"/>
<path d="M0 0 C1.03479204 -0.00467997 1.03479204 -0.00467997 2.09048897 -0.00945449 C4.4074226 -0.01744642 6.72409519 -0.01110627 9.04103088 -0.00482178 C10.69998834 -0.00753114 12.35894459 -0.01109176 14.01789856 -0.01544189 C18.52820611 -0.02457543 23.03842237 -0.02101749 27.54873157 -0.01468372 C32.26475954 -0.00962788 36.98077959 -0.0143141 41.69680786 -0.01745605 C49.61836656 -0.02109727 57.539888 -0.0162929 65.46144104 -0.0067749 C74.62332696 0.00410619 83.78512384 0.0005872 92.9470076 -0.01042771 C100.80779516 -0.01950064 108.6685559 -0.02078572 116.529347 -0.01555037 C121.22655418 -0.01243023 125.9237195 -0.0120225 130.620924 -0.01862335 C135.03761338 -0.02439612 139.4541879 -0.02040116 143.87086487 -0.00883484 C145.49303051 -0.00618773 147.11520581 -0.00695422 148.73736763 -0.01136017 C150.94955449 -0.01681517 153.16137191 -0.0099822 155.37353516 0 C157.23155589 0.00113108 157.23155589 0.00113108 159.12711239 0.002285 C162.11730509 0.24325301 163.79021266 0.58575745 166.2502594 2.25396729 C168.63166817 6.36662242 168.5841341 10.61993287 168.5627594 15.25396729 C168.57887268 15.95263916 168.59498596 16.65131104 168.61158752 17.37115479 C168.61582651 21.86448016 167.94511245 24.65173333 165.2502594 28.25396729 C163.36394397 30.14028272 160.10825247 29.49662021 157.59010315 29.57037354 C156.92563675 29.59115463 156.26117035 29.61193573 155.5765686 29.63334656 C153.44707396 29.69890387 151.31745272 29.75775514 149.1877594 29.81646729 C147.74699092 29.85964667 146.30623541 29.90326077 144.86549377 29.94732666 C141.327219 30.05459121 137.78880071 30.15584099 134.2502594 30.25396729 C134.24694925 30.88418919 134.24363911 31.51441109 134.24022865 32.16373062 C134.15902364 47.49535203 134.06693946 62.8268636 133.96273232 78.15834427 C133.91260122 85.57252182 133.86615838 92.98668829 133.8283844 100.40093994 C133.79545293 106.86287346 133.75561537 113.32472109 133.70746934 119.78655982 C133.68221576 123.2083523 133.66043117 126.63008789 133.64691544 130.05194855 C133.63009533 133.87104171 133.60106991 137.68985791 133.56910706 141.5088501 C133.56586678 143.2124897 133.56586678 143.2124897 133.56256104 144.95054626 C133.55139755 145.99098587 133.54023407 147.03142548 133.5287323 148.10339355 C133.52320154 149.00675068 133.51767078 149.9101078 133.51197243 150.84083939 C133.22721069 153.46648813 132.69770475 155.05152234 131.2502594 157.25396729 C125.87198286 160.28998035 121.28360794 160.72048127 115.1877594 160.62896729 C114.41109924 160.64056885 113.63443909 160.65217041 112.83424377 160.66412354 C107.94030633 160.63926018 104.41061708 160.08523596 100.2502594 157.25396729 C97.71632655 153.73126854 96.87626456 151.30094903 96.88949585 146.98313904 C96.88537186 145.94132477 96.88124786 144.8995105 96.8769989 143.8261261 C96.88778473 142.69396164 96.89857056 141.56179718 96.90968323 140.39532471 C96.90902611 138.59469574 96.90902611 138.59469574 96.90835571 136.75769043 C96.91008505 133.47487916 96.92510877 130.19245376 96.94607759 126.90971923 C96.96485799 123.47576439 96.96659589 120.04180161 96.97015381 116.60780334 C96.9794703 110.10906701 97.00407861 103.61048245 97.03420228 97.11181289 C97.06775871 89.71161735 97.0842354 82.31141449 97.09928858 74.91116178 C97.1306286 59.69200911 97.18338127 44.47300779 97.2502594 29.25396729 C96.43496403 29.25811535 96.43496403 29.25811535 95.60319805 29.26234722 C82.38338063 29.32857439 69.16359223 29.37804045 55.94364452 29.4094038 C49.55058817 29.42507943 43.15765128 29.44635248 36.7646637 29.48028564 C30.59849176 29.51281117 24.43243494 29.53080599 18.26618385 29.53859901 C15.91017659 29.54415476 13.55417583 29.55500332 11.19821739 29.57115746 C7.90577302 29.59284096 4.61380826 29.59593798 1.32130432 29.59454346 C-0.14928436 29.6107222 -0.14928436 29.6107222 -1.64958191 29.62722778 C-2.54560623 29.62310379 -3.44163055 29.6189798 -4.36480713 29.61473083 C-5.1437222 29.61749621 -5.92263727 29.62026159 -6.72515583 29.62311077 C-9.30869893 29.15205215 -10.1586575 28.3099994 -11.7497406 26.25396729 C-12.96924178 22.59546374 -12.97227419 19.1899316 -12.9997406 15.37896729 C-13.0203656 14.67127197 -13.0409906 13.96357666 -13.0622406 13.23443604 C-13.09602066 8.69946328 -12.57625136 5.83333372 -9.7497406 2.25396729 C-6.09223251 -0.18437144 -4.3601503 0.00265507 0 0 Z " fill="#434A51" transform="translate(1571.749740600586,1998.7460327148438)"/>
<path d="M0 0 C1.93317833 -0.00021904 1.93317833 -0.00021904 3.90541077 -0.0004425 C7.41304463 -0.00072755 10.92064378 0.00512168 14.42826962 0.01213145 C18.10378417 0.01841389 21.77929964 0.01897264 25.45481873 0.02015686 C32.4031394 0.02325582 39.35144419 0.03144975 46.2997579 0.04150635 C54.21517052 0.0527122 62.13058392 0.05818918 70.04600251 0.06320179 C86.3177056 0.07363366 102.58939276 0.09120514 118.86108398 0.11352539 C118.98516466 5.68188446 119.0756492 11.24942976 119.13574219 16.81884766 C119.16080596 18.71124296 119.19486652 20.60354222 119.23828125 22.49560547 C119.29929408 25.22395582 119.32737468 27.95102089 119.34936523 30.67993164 C119.37517166 31.51875381 119.40097809 32.35757599 119.42756653 33.22181702 C119.43049643 39.4306647 117.90601697 42.40028918 113.86108398 47.11352539 C104.15922016 55.71062211 90.2306899 56.25922405 77.93530273 56.2746582 C76.4944355 56.28210556 76.4944355 56.28210556 75.02445984 56.28970337 C71.86582708 56.30423306 68.70724459 56.31111296 65.54858398 56.31665039 C64.46160217 56.31947777 63.37462036 56.32230515 62.25469971 56.3252182 C56.49800374 56.34017655 50.7413326 56.34942616 44.98461914 56.35375977 C39.07863875 56.35922761 33.17289083 56.38322979 27.26698303 56.41173172 C22.69064705 56.43048572 18.11436553 56.43557053 13.53799438 56.43709564 C11.36299372 56.4400959 9.1879934 56.44803393 7.01303101 56.46128082 C-27.28989419 56.65523262 -27.28989419 56.65523262 -39.13891602 47.11352539 C-44.81043871 41.16534305 -44.37918147 35.60717193 -44.45141602 27.80102539 C-44.48041992 26.7678418 -44.50942383 25.7346582 -44.53930664 24.67016602 C-44.58959386 18.639568 -44.37767931 14.78059577 -40.13891602 10.11352539 C-28.62238538 0.0062834 -14.53528063 -0.04347833 0 0 Z " fill="#FEFEFE" transform="translate(2597.138916015625,2072.886474609375)"/>
<path d="M0 0 C1.93317833 -0.00021904 1.93317833 -0.00021904 3.90541077 -0.0004425 C7.41304463 -0.00072755 10.92064378 0.00512168 14.42826962 0.01213145 C18.10378417 0.01841389 21.77929964 0.01897264 25.45481873 0.02015686 C32.4031394 0.02325582 39.35144419 0.03144975 46.2997579 0.04150635 C54.21517052 0.0527122 62.13058392 0.05818918 70.04600251 0.06320179 C86.3177056 0.07363366 102.58939276 0.09120514 118.86108398 0.11352539 C118.96025124 5.55780776 119.03269307 11.00155987 119.08081055 16.4465332 C119.10087737 18.29721235 119.12813744 20.14782848 119.1628418 21.99829102 C119.21157831 24.66446516 119.23410186 27.32979826 119.25170898 29.99633789 C119.27235413 30.81844757 119.29299927 31.64055725 119.31427002 32.48757935 C119.31635198 37.86507479 118.39563687 40.82802117 114.86108398 45.11352539 C106.38179253 53.59281685 94.05996743 56.29903038 82.38252258 56.39569092 C81.47689072 56.3932135 80.57125885 56.39073608 79.63818359 56.38818359 C78.65795227 56.39329453 77.67772095 56.39840546 76.66778564 56.40367126 C73.44960296 56.4174903 70.23163645 56.41661547 67.01342773 56.41430664 C64.7553347 56.41819937 62.49724238 56.42253522 60.239151 56.42729187 C55.51097235 56.43473879 50.78286838 56.43447504 46.0546875 56.42919922 C40.03549599 56.42342381 34.01661413 56.44029656 27.99747372 56.46354389 C23.33277132 56.47837837 18.66814169 56.4791395 14.00341988 56.47603416 C11.78655957 56.47654307 9.56969473 56.48169868 7.35285759 56.49184608 C-27.34950196 56.63114566 -27.34950196 56.63114566 -39.13891602 47.11352539 C-44.83207181 41.00379722 -44.47467077 36.05479201 -44.63891602 27.98852539 C-44.69305664 26.87219727 -44.74719727 25.75586914 -44.80297852 24.60571289 C-44.89879172 18.80217041 -44.70683106 14.98600724 -40.85766602 10.45727539 C-30.06126685 -0.33912377 -14.25221511 -0.04263162 0 0 Z " fill="#FEFEFE" transform="translate(1841.138916015625,2072.886474609375)"/>
<path d="M0 0 C5.55081638 3.62937994 8.41532504 7.63459217 10 14 C10.76685102 21.28508469 11.29824826 28.90617571 7.3359375 35.35546875 C2.34162943 41.50343278 -2.85556603 44.66426461 -10.6875 45.75 C-18.49735216 46.3766449 -25.69929206 45.08456695 -32.2421875 40.62109375 C-37.69758334 35.59000647 -39.68576744 29.00646514 -40.25 21.8125 C-39.77205148 14.52378507 -38.01751688 7.83663514 -32.84375 2.47265625 C-23.60074877 -4.90999516 -10.30963171 -5.24525122 0 0 Z " fill="#EB4D41" transform="translate(2058,2234)"/>
<path d="M0 0 C2.19251026 2.01941734 3.38083411 3.40383552 4.375 6.1875 C2.395 7.8375 0.415 9.4875 -1.625 11.1875 C-2.264375 10.878125 -2.90375 10.56875 -3.5625 10.25 C-7.54468737 8.86842479 -11.3958401 8.09281732 -15.625 8.1875 C-18.16456606 9.43774533 -18.16456606 9.43774533 -19.625 11.1875 C-19.295 12.1775 -18.965 13.1675 -18.625 14.1875 C-15.4681785 15.32932905 -12.45276832 16.04518652 -9.1484375 16.61328125 C-3.81445225 17.5398799 0.2773141 18.38964477 4.375 22.1875 C7.16417405 26.47548288 7.66333321 30.35403008 6.9375 35.375 C5.63877393 40.53030899 3.90674111 42.45135442 -0.625 45.1875 C-8.2168817 48.31356894 -16.41263937 48.30337699 -24.0625 45.4375 C-27.53773973 43.86589477 -30.47814276 42.45890151 -32.625 39.1875 C-32.625 35.37333106 -30.01463742 32.96256281 -27.625 30.1875 C-25.40667112 31.25558427 -23.40261093 32.34193685 -21.375 33.75 C-16.86658865 36.10666957 -12.62566381 36.69830778 -7.6875 35.4375 C-5.30138011 34.29565785 -5.30138011 34.29565785 -4.625 31.1875 C-7.97767781 26.65447869 -13.67569325 26.94962913 -18.86328125 26.12890625 C-22.90675476 25.11698816 -25.37997561 23.77487891 -28.625 21.1875 C-31.876842 15.73279729 -32.07273642 12.17147721 -30.625 6.1875 C-27.67448953 1.26998256 -23.8205119 -1.0001729 -18.3046875 -2.40234375 C-12.40061303 -3.30602862 -5.19090091 -3.25552798 0 0 Z " fill="#EC5448" transform="translate(1966.625,2232.8125)"/>
<path d="M0 0 C4.72898073 2.79878451 7.38247001 5.72314264 9.29296875 10.93359375 C10.28846849 17.70299195 9.40232232 22.42455297 5.60546875 28.05859375 C0.50975089 32.90574 -3.79859434 33.41681823 -10.6015625 33.3359375 C-14.91424138 32.90768547 -16.95822281 31.72348601 -20.39453125 29.05859375 C-24.13521782 24.23507686 -25.76656421 20.41189319 -25.67578125 14.25 C-25.01090835 9.06953195 -22.56080198 5.16797322 -18.83203125 1.62109375 C-13.34895262 -1.89370024 -6.06917591 -2.3860871 0 0 Z " fill="#FABF12" transform="translate(2158.39453125,1887.94140625)"/>
<path d="M0 0 C11.22 0 22.44 0 34 0 C34 3.3 34 6.6 34 10 C26.74 10.33 19.48 10.66 12 11 C11.67 13.97 11.34 16.94 11 20 C18.26 20 25.52 20 33 20 C33 23.3 33 26.6 33 30 C22.605 30.495 22.605 30.495 12 31 C11.67 35.95 11.34 40.9 11 46 C7.37 46 3.74 46 0 46 C0 30.82 0 15.64 0 0 Z " fill="#EB5044" transform="translate(2116,2232)"/>
<path d="M0 0 C4.87244887 2.42016142 7.95240682 6.35266545 9.90234375 11.3828125 C10.7881886 16.34820601 10.57177323 20.74680402 8.21484375 25.2578125 C5.54596577 28.86440436 2.91908995 31.3744394 -1.09765625 33.3828125 C-8.50517121 34.06848536 -14.15893329 34.08430151 -20.09765625 29.3828125 C-24.13297779 24.81652759 -25.35127295 20.36816661 -25.09765625 14.3828125 C-23.95745243 8.75242549 -21.5525987 5.07715502 -17.09765625 1.3828125 C-11.99415648 -1.71418309 -5.65153208 -1.66283439 0 0 Z " fill="#EB4C3F" transform="translate(2292.09765625,1887.6171875)"/>
<path d="M0 0 C5.34022713 4.81922937 8.18389971 9.02444437 8.5625 16.3125 C7.62445939 22.33159392 5.35688899 26.45360155 0.5625 30.3125 C-4.36995943 33.35364601 -9.83773363 32.92051753 -15.4375 32.3125 C-19.91620656 30.15312362 -22.61948188 27.38297061 -25.4375 23.3125 C-27.05121538 18.47135385 -27.41439633 13.12638617 -25.71875 8.2421875 C-20.49863469 -1.48238215 -9.90437253 -4.86214651 0 0 Z " fill="#3DAC5B" transform="translate(2025.4375,1888.6875)"/>
<path d="M0 0 C5.28923987 1.76307996 7.80008936 4.61155112 11 9 C12.93795159 14.81385476 13.02055692 20.92108776 10.3125 26.4375 C6.91456392 30.20278052 3.61264873 33.7614198 -1.609375 34.23828125 C-12.14881343 34.48734758 -12.14881343 34.48734758 -17 30 C-21.83106777 24.51608524 -22.35024743 21.19460601 -22.28125 13.984375 C-21.77938024 8.65897925 -19.24614624 6.0977955 -15.375 2.6875 C-10.4577568 -0.80633069 -5.8950431 -0.45089565 0 0 Z " fill="#4A8BF5" transform="translate(1887,1887)"/>
<path d="M0 0 C12.87 0 25.74 0 39 0 C39 3.3 39 6.6 39 10 C32.565 10.495 32.565 10.495 26 11 C25.67 22.55 25.34 34.1 25 46 C21.37 46 17.74 46 14 46 C14 34.12 14 22.24 14 10 C9.38 10 4.76 10 0 10 C0 6.7 0 3.4 0 0 Z " fill="#EB4F43" transform="translate(2194,2232)"/>
<path d="M0 0 C4.72403852 1.9512333 7.72471109 5.44942218 10 10 C10.36969532 15.54542986 10.3292931 19.31818158 7 24 C3.33917103 27.1248968 0.16475596 28.83934401 -4.625 29.5 C-9.7361259 28.74279616 -12.83789001 27.2877435 -16.3125 23.4375 C-19.18599592 19.28689478 -19.48547357 15.97160902 -19 11 C-17.7493593 6.83119765 -16.59180868 4.56293996 -13.4375 1.5625 C-8.83140158 -0.5311811 -4.98175409 -0.68426103 0 0 Z " fill="#FEFBFA" transform="translate(2048,2241)"/>
<path d="M0 0 C0.66 0.33 1.32 0.66 2 1 C-1.96 4.96 -5.92 8.92 -10 13 C-10 8.41771462 -7.08388033 6.1816619 -4 3 C-1.625 1.0625 -1.625 1.0625 0 0 Z " fill="#85888D" transform="translate(1778,2058)"/>
<path d="M0 0 C0.66 0.33 1.32 0.66 2 1 C-0.97 3.97 -3.94 6.94 -7 10 C-7.33 9.34 -7.66 8.68 -8 8 C-5.58443874 4.80800833 -3.31996462 2.25283313 0 0 Z " fill="#82868B" transform="translate(2280,2127)"/>
</svg>
