<?xml version="1.0" encoding="UTF-8"?>
<svg version="1.1" xmlns="http://www.w3.org/2000/svg" viewBox="130 380 900 300">
<path d="M0 0 C1.28204819 -0.00856522 1.28204819 -0.00856522 2.58999634 -0.01730347 C4.00022064 -0.01898026 4.00022064 -0.01898026 5.43893433 -0.02069092 C6.42789703 -0.02565582 7.41685974 -0.03062073 8.43579102 -0.03573608 C11.72444345 -0.05039712 15.01304746 -0.05717058 18.30172729 -0.06268311 C20.59224448 -0.06843671 22.88276165 -0.07419442 25.17327881 -0.07995605 C29.99034856 -0.0904809 34.80740157 -0.09631207 39.6244812 -0.09979248 C45.75931564 -0.10524315 51.89392428 -0.12919087 58.02868843 -0.15776443 C62.76974091 -0.17652149 67.51074081 -0.18160359 72.25182724 -0.18312836 C74.51056003 -0.18613223 76.7692924 -0.19408294 79.02798843 -0.20731354 C113.72217516 -0.39582517 113.72217516 -0.39582517 128.16891479 9.32794189 C135.9869484 17.32365808 137.07305815 25.43419291 137.12203979 36.15606689 C137.12773987 37.12646912 137.13343994 38.09687134 137.13931274 39.09667969 C137.14874251 41.14755164 137.15528867 43.19843861 137.15914917 45.24932861 C137.16883772 48.36565004 137.19987365 51.48130679 137.23141479 54.59747314 C137.23794739 56.59616717 137.24319685 58.59486589 137.24703979 60.59356689 C137.2593866 61.51575012 137.2717334 62.43793335 137.28445435 63.38806152 C137.25421605 72.2961818 135.19045454 80.53795018 128.91891479 87.14044189 C117.07720807 97.68925757 97.53688461 97.29441438 82.70407104 97.30841064 C81.45371567 97.31173904 80.20336029 97.31506744 78.91511536 97.3184967 C76.27698125 97.32353878 73.63884082 97.32590587 71.0007019 97.32574463 C67.02479414 97.32562396 63.049074 97.34606811 59.07321167 97.36505127 C11.26256476 97.47192479 11.26256476 97.47192479 -2.08108521 84.44903564 C-9.34749157 76.06144548 -8.65963237 64.61627801 -8.08108521 54.14044189 C-6.57078 46.07807736 -2.70350394 40.00259128 3.91891479 35.14044189 C6.64547729 33.72637939 6.64547729 33.72637939 9.54391479 32.51544189 C10.48493042 32.11067627 11.42594604 31.70591064 12.39547729 31.28887939 C23.68422627 27.60939802 35.0653562 27.79944643 46.80563354 27.72637939 C48.71806141 27.70763957 50.63048126 27.68806412 52.54289246 27.66769409 C57.54206584 27.61666399 62.54126594 27.57688358 67.54055786 27.53955078 C72.65567476 27.49932719 77.7706833 27.44831917 82.88571167 27.39825439 C92.89670294 27.30184054 102.90775581 27.21732671 112.91891479 27.14044189 C108.4004817 21.74747336 103.50211283 19.64366144 96.5089798 18.87583923 C93.90245391 18.75575292 91.31424137 18.73793496 88.70504761 18.75567627 C87.72665421 18.7503035 86.7482608 18.74493073 85.74021912 18.73939514 C83.6319602 18.72966709 81.52366148 18.72665782 79.41538239 18.72975159 C76.07780486 18.73425154 72.74075132 18.72016987 69.40322876 18.70135498 C61.12131326 18.65846019 52.83941071 18.64730899 44.55740356 18.63513184 C37.54256738 18.62360776 30.52797239 18.60007357 23.513237 18.56044006 C20.22658677 18.54686556 16.94026225 18.55104006 13.65359497 18.55584717 C11.64079368 18.54650866 9.62799602 18.53634037 7.61520386 18.52520752 C6.24674065 18.53442986 6.24674065 18.53442986 4.85063171 18.5438385 C0.06913411 18.49735136 -3.22172535 18.29848304 -7.08108521 15.14044189 C-8.66861125 11.9653898 -8.3623202 8.60443391 -8.08108521 5.14044189 C-6.4612815 0.62813157 -4.59441757 0.01836183 0 0 Z M18.79391479 50.45294189 C15.13778897 55.69338891 14.15441112 60.87401837 14.91891479 67.14044189 C16.18089475 71.24187676 17.68473976 73.31415165 21.35641479 75.39044189 C30.62968547 79.32860697 40.81207003 79.44237032 50.73532104 79.40606689 C51.91303574 79.40798035 53.09075043 79.4098938 54.30415344 79.41186523 C56.77559627 79.41321677 59.24704645 79.40959305 61.71847534 79.40118408 C65.4749055 79.39046048 69.23085854 79.40112 72.98727417 79.41387939 C75.40329084 79.4125578 77.81930721 79.40999542 80.23532104 79.40606689 C81.34396011 79.41011536 82.45259918 79.41416382 83.59483337 79.41833496 C98.89447464 79.33386406 98.89447464 79.33386406 111.91891479 72.14044189 C114.8091303 67.34531163 114.1757792 61.80086565 114.10641479 56.39044189 C114.10577026 55.41977783 114.10512573 54.44911377 114.10446167 53.44903564 C114.49046194 48.95753314 114.49046194 48.95753314 112.91891479 45.14044189 C110.51806931 45.0294784 108.14572057 44.98305763 105.74386597 44.97930908 C104.61676208 44.97186172 104.61676208 44.97186172 103.46688843 44.96426392 C100.96521094 44.94958871 98.46359713 44.94282687 95.96188354 44.93731689 C94.22086078 44.93156411 92.47983804 44.92580639 90.73881531 44.92004395 C87.07594507 44.90951487 83.41309688 44.90368659 79.75021362 44.90020752 C75.08455992 44.89475817 70.41920332 44.87081548 65.75364208 44.84223557 C62.14938045 44.82348013 58.54518801 44.81839649 54.94088173 44.81687164 C53.2231009 44.81386701 51.50532065 44.80591358 49.78758812 44.79268646 C33.45707842 44.33939414 33.45707842 44.33939414 18.79391479 50.45294189 Z " fill="#FFFFFF" transform="translate(811.0810852050781,474.85955810546875)"/>
<path d="M0 0 C1.4836631 -0.00810448 1.4836631 -0.00810448 2.99729919 -0.01637268 C6.28080846 -0.02891777 9.56344977 -0.0123147 12.84692383 0.00561523 C15.13601223 0.00546022 17.42510089 0.00397086 19.71418762 0.00120544 C24.52539602 -0.00018168 29.3363075 0.01241951 34.14746094 0.03515625 C40.27447605 0.06333363 46.40098993 0.06086447 52.52804089 0.04806614 C57.26483833 0.04105715 62.00152301 0.04896081 66.73830605 0.06132317 C68.99423093 0.06580193 71.2501681 0.06620617 73.50609398 0.06225777 C109.68497877 0.02862189 109.68497877 0.02862189 122.67895508 9.81420898 C128.10823135 15.24348525 130.46785219 20.87296298 130.52758789 28.51049805 C130.53719543 29.50543274 130.54680298 30.50036743 130.55670166 31.52545166 C130.56307648 33.13018341 130.56307648 33.13018341 130.56958008 34.76733398 C130.57528015 35.8746991 130.58098022 36.98206421 130.58685303 38.12298584 C130.59629654 40.46650235 130.60283443 42.81003209 130.60668945 45.15356445 C130.61638063 48.72427791 130.64740503 52.29441217 130.67895508 55.86499023 C130.68548695 58.14493474 130.6907367 60.42488336 130.69458008 62.70483398 C130.70692688 63.76655823 130.71927368 64.82828247 130.73199463 65.92218018 C130.71099127 72.97352883 130.02163428 78.76429219 125.82348633 84.67358398 C112.47108174 97.48681784 93.65904184 97.65316844 76.11645508 97.66967773 C74.2373645 97.67467033 74.2373645 97.67467033 72.3203125 97.67976379 C69.67794216 97.68480562 67.03567481 97.68760826 64.39331055 97.68701172 C60.40641684 97.68689092 56.41970973 97.70734276 52.43286133 97.72631836 C5.28990349 97.83205227 5.28990349 97.83205227 -7.63354492 85.50170898 C-13.70873796 78.94689544 -14.07529786 68.38432424 -13.82104492 59.75561523 C-13.07109262 50.74056364 -11.60199959 44.56937502 -5.13354492 37.93920898 C8.00032187 27.6576466 24.65800114 28.21698899 40.37426758 28.30639648 C42.31053521 28.31013219 44.24680475 28.31297653 46.18307495 28.31497192 C51.24976938 28.32256448 56.31634696 28.34217485 61.38299561 28.36437988 C66.56496602 28.38493316 71.74695554 28.39399382 76.92895508 28.40405273 C87.07483941 28.4254253 97.22063748 28.45950771 107.36645508 28.50170898 C107.36645508 27.18170898 107.36645508 25.86170898 107.36645508 24.50170898 C98.9118911 20.8380646 91.09818543 19.05497375 81.8996582 19.08520508 C80.90654633 19.07661972 79.91343445 19.06803436 78.89022827 19.05918884 C75.64264647 19.03430935 72.39537311 19.02976732 69.14770508 19.02514648 C66.87991413 19.01082443 64.61213184 18.99506526 62.34436035 18.97793579 C56.40061148 18.93623113 50.45691638 18.91113095 44.51306152 18.89044189 C34.97174707 18.85450985 25.4305648 18.79374287 15.88938904 18.73195267 C12.55561356 18.7128352 9.22187369 18.7011289 5.88806152 18.69052124 C3.85807211 18.68031525 1.82808344 18.66995786 -0.2019043 18.65942383 C-1.13277863 18.6583815 -2.06365295 18.65733917 -3.0227356 18.65626526 C-3.86927704 18.65081192 -4.71581848 18.64535858 -5.5880127 18.63973999 C-6.325364 18.6371839 -7.0627153 18.6346278 -7.82241058 18.63199425 C-9.63354492 18.50170898 -9.63354492 18.50170898 -11.63354492 17.50170898 C-12.5966139 14.61250204 -12.82913852 12.57923017 -12.88354492 9.56420898 C-12.90932617 8.70956055 -12.93510742 7.85491211 -12.96166992 6.97436523 C-11.93119139 -0.79102653 -6.47084821 -0.06679801 0 0 Z M13.36645508 50.87670898 C8.95653049 56.664735 8.55553376 62.42748748 9.36645508 69.50170898 C11.26433241 73.55626511 13.86655674 74.93986552 17.80395508 76.75170898 C29.84220086 80.95937222 43.75135967 79.65814 56.34130859 79.63208008 C59.42591248 79.62671428 62.51037119 79.63205611 65.5949707 79.63842773 C86.95432035 80.65076938 86.95432035 80.65076938 105.86645508 72.43920898 C108.26619608 69.33954353 108.49398934 66.69194141 108.49926758 62.90405273 C108.50055664 62.02040039 108.5018457 61.13674805 108.50317383 60.22631836 C108.49930664 59.30657227 108.49543945 58.38682617 108.49145508 57.43920898 C108.49532227 56.5155957 108.49918945 55.59198242 108.50317383 54.64038086 C108.50188477 53.75801758 108.5005957 52.8756543 108.49926758 51.96655273 C108.49757568 50.7540686 108.49757568 50.7540686 108.49584961 49.51708984 C108.49310391 47.43085054 108.49310391 47.43085054 107.36645508 45.50170898 C96.9781173 45.43198541 86.58983584 45.3787846 76.20131111 45.34627247 C71.37671731 45.33066281 66.55228442 45.30951102 61.7277832 45.27539062 C57.06582955 45.24262875 52.40403001 45.22482067 47.74197006 45.21707726 C45.96949719 45.21156381 44.19703209 45.20079788 42.4246254 45.18451881 C27.0115748 44.67470675 27.0115748 44.67470675 13.36645508 50.87670898 Z " fill="#FFFFFF" transform="translate(354.633544921875,474.498291015625)"/>
<path d="M0 0 C1.85041098 0.00420897 1.85041098 0.00420897 3.738204 0.00850296 C5.13523812 0.01665687 6.53227212 0.02483005 7.92930603 0.03302002 C9.43200805 0.03802241 10.93471195 0.0424825 12.43741703 0.0464592 C15.82211099 0.05591778 19.20678435 0.06796877 22.591465 0.0813446 C28.58752661 0.10346208 34.58356911 0.110455 40.57966614 0.11566162 C68.05535594 0.14084456 95.53094695 0.20032387 123.0065321 0.27832378 C126.53368682 0.28833077 130.06084198 0.29817704 133.58799744 0.30792236 C134.6404219 0.31083442 134.6404219 0.31083442 135.71410746 0.31380531 C147.15026176 0.34502994 158.58639565 0.36187513 170.02258467 0.37359706 C181.84031064 0.38602104 193.6579322 0.41351607 205.4755922 0.4550159 C212.08125922 0.47779146 218.68681166 0.49331648 225.29252434 0.49228668 C231.48261909 0.49154107 237.67238173 0.50945228 243.86239052 0.54157066 C246.12665161 0.55006585 248.39094997 0.55182221 250.65522003 0.54620552 C265.89102087 0.51344738 278.76054125 0.76164635 290.23374939 12.10040283 C292.60254229 14.94506931 294.54251561 17.808452 296.23374939 21.10040283 C296.56136796 21.72860176 296.88898653 22.35680069 297.22653294 23.00403595 C300.82623151 30.7683323 300.79410157 38.29666499 300.73545837 46.67266846 C300.73924816 48.22440581 300.74475361 49.77613976 300.75183105 51.3278656 C300.76571712 55.51597356 300.75466445 59.70366754 300.73811984 63.89175224 C300.72419861 68.28995914 300.73073744 72.68814372 300.73425293 77.08636475 C300.73694949 84.47018041 300.7235273 91.85383301 300.70030212 99.23760986 C300.67369589 107.75485153 300.67194738 116.27182069 300.68369049 124.78908968 C300.69449753 133.00745383 300.68825828 141.22572013 300.67413521 149.44407654 C300.66840074 152.93027582 300.66843799 156.41640289 300.67320061 159.90260315 C300.67799917 164.01332943 300.66775051 168.12376016 300.64624596 172.23443031 C300.64071691 173.73635677 300.64017676 175.23831186 300.64519882 176.7402401 C300.6865688 190.89555934 298.49959832 201.40540148 288.50328064 211.92071533 C278.76714204 220.78795369 268.17673426 222.40202673 255.44007874 222.34764099 C254.14848433 222.35005541 252.85688993 222.35246982 251.52615631 222.3549574 C247.95236622 222.36135426 244.3786899 222.35531577 240.80490732 222.34719312 C236.94675752 222.34060328 233.08862018 222.34556729 229.23046875 222.34907532 C221.67848945 222.35411197 214.126554 222.34848306 206.57458015 222.33922502 C197.78490526 222.32883692 188.99523983 222.32891129 180.20555995 222.3293976 C164.52972582 222.32989799 148.8539121 222.32074115 133.17808533 222.30621338 C117.95444873 222.29211193 102.7308301 222.28504324 87.50718689 222.28570557 C86.56868775 222.28574552 85.63018861 222.28578548 84.6632501 222.28582665 C83.25797024 222.28588718 83.25797024 222.28588718 81.82430089 222.28594893 C64.50339853 222.28663789 47.18250383 222.28075569 29.86160395 222.27179572 C23.72848183 222.26877435 17.5953611 222.26771558 11.46223831 222.26726341 C3.9972108 222.26658287 -3.46780381 222.26214011 -10.93282585 222.2529306 C-14.74455446 222.24829927 -18.55626651 222.24527202 -22.36799812 222.24652481 C-26.49017793 222.24781401 -30.61230826 222.24139899 -34.73448181 222.2341156 C-35.95244285 222.2356642 -37.17040388 222.2372128 -38.42527282 222.23880833 C-39.52021659 222.23558389 -40.61516035 222.23235944 -41.74328423 222.22903728 C-43.17236573 222.22798065 -43.17236573 222.22798065 -44.63031757 222.22690266 C-46.76625061 222.10040283 -46.76625061 222.10040283 -47.76625061 221.10040283 C-47.89125061 217.60040283 -47.89125061 217.60040283 -47.76625061 214.10040283 C-46.09570029 212.42985252 -44.07813954 212.97410038 -41.7828989 212.97291088 C-40.15370859 212.96839941 -40.15370859 212.96839941 -38.49160534 212.96379679 C-36.67940617 212.96642235 -36.67940617 212.96642235 -34.83059692 212.96910095 C-33.55864627 212.96698524 -32.28669561 212.96486952 -30.976201 212.9626897 C-28.17183572 212.95807782 -25.36749256 212.95667472 -22.5631237 212.95765495 C-18.00077821 212.95924266 -13.43845479 212.95405636 -8.87611389 212.94802856 C-2.25069243 212.93990214 4.37472516 212.934967 11.00015068 212.9317379 C21.47513326 212.92624774 31.95008316 212.90935563 42.42504883 212.89039612 C46.00721258 212.88403866 49.58937642 212.87773028 53.17154026 212.87141895 C54.06689914 212.86983519 54.96225801 212.86825143 55.88474898 212.86661967 C66.08579689 212.84866902 76.28684713 212.83245084 86.48789978 212.81744385 C87.88721051 212.81538004 87.88721051 212.81538004 89.31479014 212.81327454 C104.4170084 212.79136591 119.5192183 212.78059419 134.62144964 212.7730731 C150.12307729 212.76499727 165.62463315 212.74168903 181.12621981 212.70511943 C190.68845816 212.68310692 200.25054881 212.67342598 209.8128112 212.67961977 C216.37172691 212.6827985 222.93051672 212.67143691 229.48939347 212.64872535 C233.27190189 212.636078 237.0541298 212.62986264 240.83664894 212.64114189 C244.94309666 212.65322928 249.04883488 212.63435553 253.15524292 212.61265564 C254.3432992 212.62109818 255.53135548 212.62954071 256.75541347 212.63823909 C266.85138713 212.53969121 275.00558692 210.17958782 282.47593689 203.16290283 C288.32983593 196.29432796 290.35000016 188.72439303 290.37419128 179.87184143 C290.37990143 178.6172966 290.38561157 177.36275177 290.39149475 176.07019043 C290.39273996 174.68743906 290.39386509 173.30468759 290.3948822 171.92193604 C290.39951373 170.45960872 290.40453884 168.99728261 290.40992737 167.53495789 C290.42302254 163.56776735 290.42949088 159.60059371 290.43393803 155.63338494 C290.43687387 153.15162128 290.44097968 150.66986217 290.4454422 148.18810081 C290.45911056 140.41398971 290.46878002 132.63988911 290.47264409 124.86576682 C290.47712106 115.90912021 290.49465491 106.95262648 290.52364469 97.99602634 C290.54530547 91.06164088 290.55535074 84.12729829 290.55668521 77.19287938 C290.55773024 73.05661488 290.56357331 68.92049423 290.58150482 64.78426552 C290.5980614 60.88951076 290.60010452 56.99500681 290.59136581 53.10022926 C290.59059944 51.67730535 290.59488503 50.25436753 290.60482407 48.83147812 C290.67831221 37.64746793 289.81824819 27.97680139 282.46031189 19.14727783 C273.38823239 10.80733106 262.95963183 9.94516852 251.2754364 9.99360657 C249.61602457 9.99444163 249.61602457 9.99444163 247.92308927 9.99529356 C244.21509693 9.99833033 240.50715839 10.0085141 236.79917908 10.01861572 C234.14147378 10.02217172 231.48377115 10.02531743 228.82606506 10.02790833 C223.10323574 10.03420033 217.38042074 10.04393626 211.6576004 10.0558033 C203.38122238 10.07278568 195.10484791 10.08233426 186.82845631 10.08968204 C173.39714352 10.10162219 159.96583633 10.1165709 146.53453064 10.13482666 C145.73098228 10.13591678 144.92743392 10.1370069 144.09953561 10.13813006 C132.68307061 10.15375765 121.26661232 10.17235516 109.85015383 10.19212794 C108.64301215 10.19421791 108.64301215 10.19421791 107.41148376 10.1963501 C106.20581128 10.19844039 106.20581128 10.19844039 104.97578177 10.20057292 C91.58945938 10.22358101 78.20314136 10.23891286 64.81680226 10.24790949 C56.55707108 10.25377147 48.29739987 10.26616985 40.03769234 10.28688227 C34.38440311 10.30055646 28.73113494 10.30708141 23.07782933 10.30789239 C19.81276782 10.30859861 16.54781552 10.31373106 13.28277206 10.32535553 C9.74982601 10.33745225 6.21708805 10.33740497 2.68412781 10.33418274 C1.64349017 10.34069054 0.60285253 10.34719834 -0.46931958 10.35390335 C-1.88051765 10.34885526 -1.88051765 10.34885526 -3.32022476 10.34370518 C-4.1364088 10.34500669 -4.95259284 10.3463082 -5.79350972 10.34764916 C-7.76625061 10.10040283 -7.76625061 10.10040283 -9.76625061 8.10040283 C-9.39125061 4.47540283 -9.39125061 4.47540283 -8.76625061 1.10040283 C-5.57465373 0.03653721 -3.35361246 -0.01509326 0 0 Z " fill="#FFFFFF" transform="translate(708.7662506103516,411.89959716796875)"/>
<path d="M0 0 C0.89195611 -0.00904079 1.78391222 -0.01808157 2.70289731 -0.02739632 C3.49448723 -0.03871604 4.28607715 -0.05003576 5.10165465 -0.0616985 C7.18577123 0.03705585 7.18577123 0.03705585 10.18577123 1.03705585 C10.87327123 3.84955585 10.87327123 3.84955585 11.18577123 7.03705585 C9.64595136 9.19446367 8.72647329 9.94107021 6.09984654 10.40735 C5.28924828 10.4051267 4.47865002 10.40290339 3.64348817 10.40061271 C2.7066486 10.40535246 1.76980904 10.41009221 0.80458039 10.41497558 C-0.22652498 10.40487282 -1.25763035 10.39477006 -2.31998134 10.38436115 C-3.96095614 10.38608936 -3.96095614 10.38608936 -5.63508195 10.38785249 C-9.32004369 10.38811169 -13.00457537 10.36688244 -16.68947291 10.34589374 C-19.32391106 10.34177543 -21.95832439 10.33885706 -24.59276271 10.33748615 C-30.27638429 10.33223204 -35.95989365 10.31619921 -41.64346957 10.2931155 C-49.87187837 10.25988937 -58.10024116 10.24512415 -66.32870739 10.23526078 C-79.69264736 10.21892668 -93.05653247 10.19066157 -106.42042994 10.15351093 C-107.62066359 10.15017924 -107.62066359 10.15017924 -108.84514438 10.14678025 C-112.08672658 10.13776577 -115.32830872 10.12872989 -118.56989077 10.11966411 C-127.47839917 10.09486502 -136.38691279 10.07238193 -145.29542994 10.05097187 C-146.09248955 10.04905289 -146.88954916 10.04713391 -147.71076209 10.04515678 C-161.01566152 10.01341241 -174.32056616 9.98970554 -187.62548989 9.97088987 C-195.82896928 9.95883569 -204.03236365 9.93907832 -212.23579817 9.90928339 C-217.86300217 9.88923862 -223.49019396 9.87620101 -229.11742843 9.86859269 C-232.36119003 9.86393133 -235.60483399 9.85482693 -238.84856296 9.83901966 C-242.37229077 9.82229977 -245.89582828 9.8180349 -249.41959071 9.81673419 C-250.43508103 9.80886215 -251.45057135 9.80099011 -252.4968341 9.79287952 C-263.42903939 9.81728285 -272.91696902 11.43015205 -281.56813502 18.4628371 C-289.17014924 26.14106198 -290.2648872 37.72810892 -290.34523463 47.99916828 C-290.33586837 49.34342466 -290.32608932 50.68767822 -290.31593776 52.0319289 C-290.31973164 53.48558816 -290.32524042 54.93924379 -290.33231044 56.39289081 C-290.34613948 60.29984988 -290.33518656 64.2063624 -290.31859922 68.11329615 C-290.30463216 72.22320529 -290.31122165 76.33309155 -290.31473231 80.44301593 C-290.31742439 87.33812298 -290.30404247 94.23305494 -290.28078151 101.1281203 C-290.25414636 109.07796116 -290.25243848 117.02751011 -290.26416987 124.97738034 C-290.27497905 132.6580796 -290.26873805 140.33867421 -290.25461459 148.01936519 C-290.24888515 151.27390596 -290.24891326 154.52836937 -290.25367999 157.78291118 C-290.25848121 161.6187256 -290.2482193 165.45422358 -290.22672534 169.28997791 C-290.22120101 170.69031508 -290.22065171 172.09068294 -290.22567821 173.49102199 C-290.2630056 185.38925974 -288.89975084 195.82247439 -280.81422877 205.03705585 C-272.40961889 212.04089742 -263.53130321 212.33163345 -253.02055812 212.30879962 C-251.72896372 212.31388646 -250.43736932 212.3189733 -249.10663569 212.32421428 C-245.5328652 212.33804145 -241.95917999 212.33957149 -238.38538671 212.33907104 C-234.52722148 212.34071125 -230.66909338 212.35384305 -226.81094813 212.3656081 C-220.12995616 212.38445677 -213.44898242 212.39617855 -206.76796794 212.40314662 C-197.10729711 212.41331984 -187.44668147 212.43538426 -177.78603934 212.46053254 C-162.11022605 212.50110957 -146.43440748 212.53358179 -130.75856471 212.56024921 C-129.82074188 212.56184651 -128.88291905 212.56344381 -127.91667734 212.56508952 C-126.97764339 212.56668842 -126.03860943 212.56828732 -125.0711199 212.56993467 C-111.7432976 212.59264554 -98.4154807 212.61727714 -85.08766627 212.64423358 C-84.14916713 212.64612973 -83.21066799 212.64802588 -82.24372949 212.64997948 C-66.61881349 212.6817114 -50.99390817 212.71745447 -35.3690058 212.75527507 C-25.72654309 212.77835477 -16.0840877 212.79729458 -6.44160692 212.81094181 C0.1563854 212.82044109 6.75436548 212.83326597 13.35234646 212.84875066 C17.16407245 212.85754937 20.97578321 212.86463202 24.78751874 212.86739147 C28.90970314 212.8703934 33.03183257 212.8809575 37.15400243 212.89229572 C38.98094398 212.89171652 38.98094398 212.89171652 40.84479344 212.89112562 C42.48720908 212.89748719 42.48720908 212.89748719 44.16280484 212.90397727 C45.11552585 212.90555117 46.06824685 212.90712507 47.04983819 212.90874666 C49.18577123 213.03705585 49.18577123 213.03705585 50.18577123 214.03705585 C50.31077123 217.53705585 50.31077123 217.53705585 50.18577123 221.03705585 C48.50747873 222.71534834 46.44931707 222.1669672 44.14553666 222.17127693 C43.0467096 222.17573477 41.94788254 222.18019261 40.81575769 222.18478554 C39.59342536 222.18460118 38.37109303 222.18441682 37.11172032 222.18422687 C35.82484659 222.18790356 34.53797286 222.19158025 33.21210295 222.19536835 C29.62322923 222.20541803 26.03437223 222.20910993 22.44548643 222.21175766 C18.5808821 222.21565227 14.71629113 222.22523157 10.8516953 222.23397052 C1.50677448 222.25376495 -7.83814748 222.26380759 -17.18308404 222.27269831 C-21.58323672 222.27707873 -25.98338819 222.2824464 -30.38353992 222.28768718 C-45.01222968 222.30470692 -59.64091869 222.31919899 -74.26961684 222.32643592 C-78.06891132 222.32834586 -81.8682058 222.33026618 -85.66750026 222.33222187 C-87.08396774 222.33294748 -87.08396774 222.33294748 -88.52905073 222.33368775 C-103.81101975 222.34198 -119.09291028 222.36729997 -134.37484507 222.39980254 C-150.06402842 222.43289896 -165.75317194 222.45088726 -181.44239038 222.45408016 C-190.25128495 222.45624351 -199.06006528 222.46496577 -207.86892581 222.49054134 C-215.37517164 222.51228412 -222.88127551 222.52028143 -230.38754926 222.51057456 C-234.21488244 222.50603938 -238.04192296 222.5078698 -241.86921573 222.527336 C-246.02746735 222.54830172 -250.18507416 222.53795125 -254.3433578 222.52480304 C-256.14004939 222.54125691 -256.14004939 222.54125691 -257.97303778 222.55804318 C-270.50644645 222.46265811 -280.35304822 219.09061847 -289.45876002 210.48236835 C-298.66555199 200.7394847 -299.58235164 189.67625426 -299.61891627 176.9550246 C-299.64142797 175.21779328 -299.66572939 173.48058441 -299.69163966 171.74340045 C-299.75534109 166.89697791 -299.7835431 162.05094961 -299.80170131 157.20416248 C-299.81462255 153.93750439 -299.83367267 150.67092494 -299.85390162 147.40430439 C-299.94688803 131.64584446 -299.95553476 115.88795808 -299.9411819 100.12927997 C-299.93854859 95.03325912 -299.94342001 89.93725542 -299.94817233 84.84123695 C-299.95179352 79.87992276 -299.95063362 74.91861838 -299.94804454 69.95730388 C-299.94738392 67.61516236 -299.94817293 65.27301991 -299.95052409 62.93087947 C-299.98177454 23.19853986 -299.98177454 23.19853986 -289.18922877 11.59955585 C-282.27264395 5.15926279 -273.74002048 0.93005824 -264.19575 0.89839065 C-262.80317936 0.89017898 -262.80317936 0.89017898 -261.38247597 0.88180143 C-260.36595629 0.88082332 -259.3494366 0.87984521 -258.30211329 0.87883747 C-256.67823284 0.8714305 -256.67823284 0.8714305 -255.02154672 0.8638739 C-251.38131601 0.84847376 -247.74110298 0.84013118 -244.10084987 0.83173358 C-241.49582712 0.82215648 -238.89080593 0.8121465 -236.28578639 0.80173481 C-230.66881365 0.77997333 -225.05183852 0.7618265 -219.43484569 0.74612987 C-211.30272045 0.72340194 -203.17062102 0.69525998 -195.03851767 0.66581059 C-181.83046541 0.61812951 -168.6224025 0.57487495 -155.41432643 0.5343703 C-142.60832811 0.49508966 -129.80233968 0.45366372 -116.99635768 0.4093703 C-116.20852178 0.40664603 -115.42068588 0.40392176 -114.60897617 0.40111493 C-110.65520692 0.38743116 -106.70143781 0.37370948 -102.74766874 0.35997462 C-79.22342893 0.27832464 -55.69918119 0.19917096 -32.17491603 0.12516391 C-29.62804723 0.11714992 -27.08117858 0.10908762 -24.5343101 0.10097301 C-21.05228928 0.08990946 -17.57026785 0.07906238 -14.08824611 0.06829059 C-13.08511075 0.06508176 -12.0819754 0.06187293 -11.04844201 0.05856687 C-9.19130918 0.05292737 -7.33417105 0.04876695 -5.47703123 0.04634547 C-3.6512999 0.03997611 -1.82558419 0.02403805 0 0 Z " fill="#FFFFFF" transform="translate(367.81422877311707,411.962944149971)"/>
<path d="M0 0 C1.17942169 -0.00394272 2.35884338 -0.00788544 3.57400513 -0.01194763 C6.80175018 -0.01750448 10.02843058 -0.00077458 13.25603628 0.02653241 C16.64000296 0.0504111 20.02395359 0.04741788 23.4079895 0.0478363 C29.09245651 0.05246221 34.77658828 0.07608426 40.4609375 0.11230469 C47.02122356 0.15399689 53.58120764 0.17161739 60.14161861 0.17492443 C67.139161 0.17853312 74.1365956 0.19742463 81.13409281 0.22204471 C83.14374619 0.22825548 85.15339135 0.2319031 87.16305161 0.23507881 C90.91873264 0.24413658 94.67409351 0.26654297 98.4296875 0.29296875 C100.09133942 0.29396576 100.09133942 0.29396576 101.78656006 0.29498291 C115.16960081 0.42472776 115.16960081 0.42472776 118.34423828 3.59936523 C118.96533203 6.71264648 118.96533203 6.71264648 118.34423828 10.59936523 C115.737533 13.50107945 112.60988529 15.58575514 109.40673828 17.78686523 C108.49811035 18.4383252 107.58948242 19.08978516 106.65332031 19.76098633 C103.89846501 21.72915228 101.12353134 23.66592203 98.34423828 25.59936523 C96.84936498 26.65861306 95.35576568 27.71966239 93.86376953 28.78295898 C91.10228811 30.7465144 88.33236441 32.69715825 85.55517578 34.63842773 C81.11831924 37.74651114 76.72966285 40.91929679 72.34423828 44.09936523 C66.53873664 48.30644956 60.70897296 52.47525548 54.84423828 56.59936523 C48.73542353 60.89762944 42.65335125 65.23128216 36.59423828 69.59936523 C35.84335937 70.13948242 35.09248047 70.67959961 34.31884766 71.23608398 C33.61050781 71.7478418 32.90216797 72.25959961 32.17236328 72.78686523 C31.55264648 73.23416992 30.93292969 73.68147461 30.29443359 74.14233398 C27.93278518 75.90677035 25.64304996 77.75408551 23.34423828 79.59936523 C24.50046692 79.60745209 25.65669556 79.61553894 26.84796143 79.62387085 C37.73676145 79.70130765 48.62543615 79.78904078 59.51407242 79.88689232 C65.11222092 79.93686855 70.71035042 79.98319857 76.30859375 80.02124023 C81.70976127 80.05807612 87.11077039 80.10443164 92.51180267 80.15742874 C94.57387264 80.17598168 96.63597656 80.1910863 98.69809723 80.2027092 C101.58323944 80.21955611 104.46801817 80.24858765 107.35302734 80.28051758 C108.63588371 80.28375786 108.63588371 80.28375786 109.94465637 80.2870636 C111.12667885 80.30380882 111.12667885 80.30380882 112.33258057 80.32089233 C113.01470737 80.32642309 113.69683418 80.33195385 114.3996315 80.33765221 C116.73700809 80.65222578 118.33733474 81.37247909 120.34423828 82.59936523 C121.57608594 85.06306055 121.5115617 86.78881534 121.53173828 89.53686523 C121.54591797 90.41213867 121.56009766 91.28741211 121.57470703 92.18920898 C121.34423828 94.59936523 121.34423828 94.59936523 119.34423828 97.59936523 C116.40840415 98.57797661 114.50918848 98.72944211 111.45040894 98.73980713 C110.44117874 98.74551727 109.43194855 98.75122742 108.39213562 98.7571106 C107.28562149 98.75822845 106.17910736 98.75934631 105.0390625 98.76049805 C103.28981728 98.7679454 103.28981728 98.7679454 101.50523376 98.77554321 C97.63645848 98.79018077 93.76772424 98.79697043 89.89892578 98.80249023 C88.56462708 98.80522636 87.23032862 98.80808277 85.89603043 98.81105804 C79.62387649 98.82473408 73.3517356 98.83439873 67.07956779 98.83825994 C59.85366059 98.84273322 52.62794326 98.86024649 45.40209377 98.88926053 C39.80872906 98.91093478 34.21541753 98.92096736 28.6220113 98.92230105 C25.28550125 98.92334552 21.94931099 98.93063771 18.61281967 98.94712067 C14.88366188 98.96422442 11.15496264 98.96228967 7.42578125 98.95581055 C6.33141251 98.96502533 5.23704376 98.97424011 4.10951233 98.98373413 C-2.95506055 98.94539303 -10.12356642 98.50823195 -15.78076172 93.84936523 C-17.17275449 90.26995524 -16.7752493 88.26879676 -15.65576172 84.59936523 C-11.39359673 79.30348059 -5.86981384 75.34264689 -0.34326172 71.47436523 C1.25840004 70.33518186 2.8599597 69.19585492 4.46142578 68.05639648 C5.27321289 67.48228027 6.085 66.90816406 6.92138672 66.31665039 C10.72453338 63.62103032 14.50359839 60.89237317 18.28173828 58.16186523 C19.02149902 57.62795166 19.76125977 57.09403809 20.5234375 56.54394531 C28.35065949 50.88719082 36.12041461 45.15310932 43.88720703 39.41381836 C48.98850842 35.6466411 54.09668061 31.88877583 59.20336914 28.12890625 C60.32304077 27.30410767 60.32304077 27.30410767 61.46533203 26.46264648 C62.11945068 25.98093994 62.77356934 25.4992334 63.44750977 25.00292969 C64.80364073 23.99940325 66.1397481 22.96858914 67.46166992 21.92041016 C69.34423828 20.59936523 69.34423828 20.59936523 71.34423828 20.59936523 C71.34423828 19.93936523 71.34423828 19.27936523 71.34423828 18.59936523 C69.80114738 18.61601982 69.80114738 18.61601982 68.22688293 18.63301086 C58.53059955 18.73438322 48.83442372 18.80932884 39.1377306 18.85842609 C34.15254946 18.8845163 29.1677962 18.91990391 24.18286133 18.9765625 C19.37177515 19.03090272 14.56110045 19.06079011 9.74973106 19.07375145 C7.91447153 19.08298772 6.07923444 19.10102431 4.24415016 19.12801552 C1.6726077 19.16433345 -0.89723634 19.16930958 -3.46899414 19.16699219 C-4.60619652 19.19395676 -4.60619652 19.19395676 -5.76637268 19.22146606 C-9.77152083 19.18243204 -11.47176351 18.74844922 -14.62593079 16.1927948 C-16.59208328 13.68072449 -17.34356363 12.71434004 -17.28076172 9.59936523 C-17.29365234 8.95999023 -17.30654297 8.32061523 -17.31982422 7.66186523 C-14.59903496 -0.7885861 -7.38872512 -0.09858326 0 0 Z " fill="#FFFFFF" transform="translate(668.65576171875,473.400634765625)"/>
<path d="M0 0 C1.44153191 -0.01210762 1.44153191 -0.01210762 2.91218567 -0.02445984 C4.93517277 -0.03824039 6.95818254 -0.04898927 8.98120117 -0.05688477 C11.05386139 -0.06847117 13.12649027 -0.08902623 15.19897461 -0.1184082 C18.19535567 -0.16086464 21.19085646 -0.17721633 24.1875 -0.1875 C25.11564011 -0.20500809 26.04378021 -0.22251617 27.00004578 -0.24055481 C33.38677339 -0.2188616 33.38677339 -0.2188616 35.97631836 2.11254883 C37.06498067 4.63288457 37.29462737 6.49443825 37.26953125 9.23828125 C37.28113281 10.50671875 37.28113281 10.50671875 37.29296875 11.80078125 C36.78035521 14.93676997 36.23990522 16.05699277 33.89453125 18.23828125 C30.8691043 18.62786462 28.19395013 18.77197475 25.16796875 18.7421875 C23.87459091 18.75631935 23.87459091 18.75631935 22.55508423 18.77073669 C19.79299338 18.7994367 17.03175919 18.80246524 14.26953125 18.80078125 C11.52885054 18.80440329 8.78879973 18.81414338 6.04824829 18.84153748 C4.34420581 18.858155 2.63995791 18.86133805 0.93588257 18.848526 C-4.73912324 18.89794398 -9.94966636 19.74161386 -15.10546875 22.23828125 C-16.26263386 24.55261147 -16.33757311 26.09888937 -16.41796875 28.67578125 C-16.45535156 29.45824219 -16.49273437 30.24070312 -16.53125 31.046875 C-16.30829435 33.37438241 -16.30829435 33.37438241 -14.35525513 34.80223083 C-7.11252595 39.42530276 2.88260365 38.53189802 11.13671875 38.546875 C13.69271065 38.57203146 16.24870018 38.59742954 18.8046875 38.62304688 C22.78921917 38.65174963 26.77370985 38.67580094 30.75830078 38.69458008 C34.63464897 38.71636808 38.51053359 38.75580887 42.38671875 38.796875 C43.56209198 38.79699081 44.73746521 38.79710663 45.94845581 38.79722595 C57.34056875 38.93193703 71.41424274 40.61281316 79.8125 49.19921875 C84.50825453 55.19996919 85.09231955 59.9996641 85.14453125 67.55078125 C85.16515625 68.28490234 85.18578125 69.01902344 85.20703125 69.77539062 C85.25302063 76.2541443 83.90513026 80.90163915 79.58203125 85.92578125 C64.7888674 98.6547827 42.87890621 97.55644398 24.3125 97.50390625 C22.59759974 97.50525814 20.88269987 97.507203 19.1678009 97.50970459 C15.61402657 97.51262091 12.06035412 97.50846562 8.5065918 97.49902344 C3.95500124 97.48751681 -0.59635628 97.49428033 -5.14793873 97.50616837 C-8.67121653 97.51338581 -12.19443868 97.51110152 -15.71771812 97.50591278 C-17.3974377 97.5045818 -19.07716237 97.50620461 -20.75687599 97.51087189 C-23.09171703 97.51594762 -25.42617396 97.50821752 -27.76098633 97.49707031 C-28.44925507 97.50111877 -29.1375238 97.50516724 -29.84664917 97.50933838 C-33.39326292 97.47795018 -36.18625476 97.37075061 -39.10546875 95.23828125 C-40.0202354 92.49398129 -40.29785319 90.64795031 -40.35546875 87.80078125 C-40.38125 87.03894531 -40.40703125 86.27710938 -40.43359375 85.4921875 C-39.99643287 82.48930861 -39.29580453 81.35980852 -37.10546875 79.23828125 C-34.44737643 78.83697155 -32.19569532 78.69418563 -29.53564453 78.72412109 C-28.76604904 78.716996 -27.99645355 78.70987091 -27.20353699 78.70252991 C-24.65235975 78.68319476 -22.10200794 78.69154454 -19.55078125 78.69921875 C-17.77015985 78.6893086 -15.98954871 78.67736614 -14.20895386 78.66348267 C-9.50882649 78.6310481 -4.80893185 78.6207256 -0.10870361 78.61663818 C7.37804737 78.60790626 14.86460573 78.571955 22.3512001 78.52446365 C24.95050693 78.51201198 27.54956507 78.51262639 30.14889526 78.51473999 C45.58334256 79.33905456 45.58334256 79.33905456 59.20944214 74.29989624 C61.67626621 71.28187099 61.46956016 69.12290577 61.265625 65.359375 C60.99555978 63.08283461 60.99555978 63.08283461 59.45703125 60.80078125 C52.087081 56.30690915 42.93113282 56.94453995 34.6015625 56.9296875 C32.00585719 56.90452163 29.41015411 56.87912369 26.81445312 56.85351562 C22.7642721 56.82288851 18.71407041 56.80060652 14.66381836 56.78198242 C10.72622658 56.76280276 6.78898729 56.72068752 2.8515625 56.6796875 C1.06647026 56.67951378 1.06647026 56.67951378 -0.75468445 56.67933655 C-12.78970607 56.53987865 -24.72521745 55.39682211 -34.10546875 47.23828125 C-40.23596628 40.95059147 -40.55259871 33.88072414 -40.53930664 25.57495117 C-40.38369607 19.61203166 -39.37017035 15.60089692 -35.10546875 11.23828125 C-34.62078125 10.69042969 -34.13609375 10.14257812 -33.63671875 9.578125 C-24.96082046 0.92349117 -11.57943263 0.09276598 0 0 Z " fill="#FFFFFF" transform="translate(170.10546875,474.76171875)"/>
<path d="M0 0 C1.2428476 -0.0033284 2.48569519 -0.0066568 3.76620483 -0.01008606 C6.39019401 -0.01513468 9.01418957 -0.01749502 11.63818359 -0.01733398 C15.61433502 -0.01721295 19.59030027 -0.03766924 23.56640625 -0.05664062 C26.12760323 -0.0595767 28.68880151 -0.06156006 31.25 -0.0625 C32.42132477 -0.06968552 33.59264954 -0.07687103 34.79946899 -0.08427429 C50.11936189 -0.04272213 66.77288332 0.9656881 78.24609375 12.1484375 C83.4421894 18.05257256 84.13242267 24.213684 84.21630859 31.80664062 C84.22857483 32.77592247 84.22857483 32.77592247 84.24108887 33.76478577 C84.26576657 35.88875431 84.28240756 38.01265716 84.296875 40.13671875 C84.30219868 40.86507431 84.30752235 41.59342987 84.31300735 42.34385681 C84.33965425 46.19455916 84.35906132 50.04522995 84.37353516 53.89599609 C84.38690222 57.07760183 84.41481617 60.25857042 84.45556641 63.43994141 C84.5048784 67.29074703 84.52965259 71.14097283 84.53676224 74.99208069 C84.54347026 76.45612432 84.55868098 77.92015521 84.58265305 79.38401794 C84.61431248 81.43313095 84.61434324 83.48000305 84.60693359 85.52929688 C84.61502045 86.6933606 84.6231073 87.85742432 84.63143921 89.0567627 C83.83595847 93.12731787 82.22243567 94.61387751 79.0234375 97.16796875 C75.8671875 97.796875 75.8671875 97.796875 72.5234375 97.73046875 C70.86828125 97.73240234 70.86828125 97.73240234 69.1796875 97.734375 C65.3086884 97.03970313 63.7822332 95.9502932 61.0234375 93.16796875 C60.3976593 90.24621582 60.3976593 90.24621582 60.39575195 86.81054688 C60.38256424 85.52241089 60.36937653 84.2342749 60.35578918 82.90710449 C60.36587085 81.50447425 60.37618636 80.10184568 60.38671875 78.69921875 C60.37867685 77.25718647 60.36815771 75.81516606 60.35527039 74.37316895 C60.32672779 70.58026923 60.32614483 66.78791595 60.33312988 62.99493408 C60.34045437 56.92436734 60.30908988 50.85397748 60.27068138 44.78355408 C60.2618376 42.66518594 60.26713004 40.5472003 60.27424622 38.42883301 C60.27051498 37.14069702 60.26678375 35.85256104 60.26293945 34.52539062 C60.26469681 33.39161987 60.26645416 32.25784912 60.26826477 31.08972168 C60.02657149 28.20536964 59.59213677 26.57166981 58.0234375 24.16796875 C47.32203751 16.75930722 31.45983123 18.98164104 19.10888672 18.98266602 C16.16228797 18.98047903 13.21606412 18.96226945 10.26953125 18.94335938 C-8.60390995 17.96524604 -8.60390995 17.96524604 -24.9765625 25.16796875 C-28.75043573 31.68360739 -28.33147364 37.95053019 -28.19921875 45.328125 C-28.19023056 46.59136093 -28.18124237 47.85459686 -28.17198181 49.15611267 C-28.14710178 52.49952613 -28.11031718 55.84230729 -28.065979 59.18548584 C-28.00398578 63.89542434 -27.95311565 68.60532679 -27.91685486 73.3155365 C-27.89713359 75.81870026 -27.86754609 78.32181054 -27.82691956 80.82472229 C-27.81216835 82.53195717 -27.81216835 82.53195717 -27.79711914 84.27368164 C-27.7836293 85.26960831 -27.77013947 86.26553497 -27.75624084 87.29164124 C-28.00524797 90.5424612 -28.73250053 93.15873739 -29.9765625 96.16796875 C-32.99515016 97.67726258 -36.10557204 97.39306948 -39.4140625 97.41796875 C-40.09533203 97.43859375 -40.77660156 97.45921875 -41.47851562 97.48046875 C-46.47085417 97.519586 -46.47085417 97.519586 -48.88671875 95.83984375 C-51.0937026 92.45421978 -51.10717171 89.44735165 -51.12182617 85.52587891 C-51.12820602 84.36682037 -51.13458588 83.20776184 -51.14115906 82.01358032 C-51.14227188 80.75741913 -51.1433847 79.50125793 -51.14453125 78.20703125 C-51.14785965 76.91034515 -51.15118805 75.61365906 -51.15461731 74.27767944 C-51.16060958 71.52544322 -51.1624575 68.77323838 -51.16186523 66.02099609 C-51.1617645 62.53035395 -51.17532319 59.0399193 -51.19263744 55.54932594 C-51.20659406 52.18522566 -51.20585115 48.82115997 -51.20703125 45.45703125 C-51.21421677 44.22111237 -51.22140228 42.98519348 -51.22880554 41.71182251 C-51.17063284 19.20041514 -51.17063284 19.20041514 -44.6484375 11.80859375 C-44.09671875 11.2671875 -43.545 10.72578125 -42.9765625 10.16796875 C-42.50734375 9.6884375 -42.038125 9.20890625 -41.5546875 8.71484375 C-30.96148472 -0.34944317 -13.12740701 0.01234377 0 0 Z " fill="#FFFFFF" transform="translate(551.9765625,474.83203125)"/>
<path d="M0 0 C1.01013657 -0.00686325 2.02027313 -0.0137265 3.0610199 -0.02079773 C6.40141841 -0.03910614 9.74134918 -0.03522308 13.08178711 -0.02954102 C15.40059055 -0.03410018 17.71939264 -0.03940495 20.03819275 -0.04542542 C24.89791352 -0.05436397 29.75747001 -0.05192402 34.6171875 -0.04199219 C40.85425038 -0.03048939 47.09074822 -0.05073081 53.32773685 -0.07990932 C58.11546955 -0.09822499 62.90306559 -0.09798832 67.69082451 -0.0922718 C69.99099967 -0.09211809 72.2911838 -0.09820373 74.59132576 -0.11056328 C77.80213393 -0.12538732 81.01188201 -0.11485978 84.22265625 -0.09765625 C85.17806305 -0.10732422 86.13346985 -0.11699219 87.11782837 -0.12695312 C93.53220825 -0.05473103 93.53220825 -0.05473103 96.13572693 2.26719666 C97.28162796 4.9553238 97.44546687 7.04664084 97.42163086 9.96655273 C97.43323242 11.39161133 97.43323242 11.39161133 97.44506836 12.84545898 C96.97586427 15.85848522 96.39195496 16.53947196 94.04663086 18.40405273 C92.14550781 18.83642578 92.14550781 18.83642578 90.03491211 18.91577148 C88.89892578 18.96894531 88.89892578 18.96894531 87.73999023 19.02319336 C86.95430664 19.04575195 86.16862305 19.06831055 85.35913086 19.09155273 C84.16320312 19.14279297 84.16320312 19.14279297 82.94311523 19.19506836 C80.97811182 19.27743377 79.0123939 19.34242341 77.04663086 19.40405273 C77.04298523 20.30749924 77.0393396 21.21094574 77.0355835 22.14176941 C76.99769744 30.6610792 76.94083774 39.18000641 76.86272812 47.69904613 C76.8232396 52.07867608 76.79105799 56.45810457 76.77563477 60.83789062 C76.76047704 65.0656539 76.72604779 69.29286335 76.67832184 73.52038002 C76.66349881 75.13223771 76.65558931 76.74417446 76.65474701 78.35610008 C76.65237824 80.61641674 76.62530936 82.8752017 76.5925293 85.13525391 C76.57920563 87.06385506 76.57920563 87.06385506 76.56561279 89.03141785 C75.95837081 92.97761591 74.91105308 94.66130469 72.04663086 97.40405273 C68.73413086 97.96264648 68.73413086 97.96264648 65.04663086 97.84155273 C63.22131836 97.80868164 63.22131836 97.80868164 61.35913086 97.77514648 C58.33400004 97.43624622 56.54221931 97.08977474 54.04663086 95.40405273 C52.57029245 92.45137591 52.88920035 89.78744192 52.85717773 86.49169922 C52.84473778 85.4256546 52.84473778 85.4256546 52.83204651 84.33807373 C52.81463636 82.79335707 52.79947217 81.24861387 52.78627014 79.70385551 C52.76527459 77.26279102 52.73825081 74.82186043 52.70959473 72.38087463 C52.63969623 66.31937282 52.58028707 60.2577761 52.52056885 54.19616699 C52.46972102 49.07416668 52.41492671 43.95223891 52.35475159 38.83033943 C52.32808858 36.41893261 52.30732933 34.00751935 52.28674316 31.59605408 C52.2701476 30.12636998 52.25327643 28.65668896 52.23608398 27.18701172 C52.22355591 25.89842758 52.21102783 24.60984344 52.19812012 23.2822113 C52.37390579 20.50834004 52.37390579 20.50834004 51.04663086 19.40405273 C49.12983304 19.29623032 47.20910057 19.25777695 45.28930664 19.24633789 C44.05777863 19.23607574 42.82625061 19.2258136 41.55740356 19.21524048 C40.89510868 19.21180256 40.2328138 19.20836464 39.55044937 19.20482254 C37.48274288 19.19306291 35.41524806 19.17361788 33.34762573 19.15170288 C27.46758047 19.08998946 21.58755522 19.03603216 15.70727539 19.00268555 C12.11385271 18.98175561 8.52081272 18.9464644 4.92760849 18.90192795 C3.55691912 18.8877514 2.186162 18.87904176 0.81540298 18.87587357 C-1.10223235 18.87097277 -3.01978598 18.846219 -4.93725586 18.82055664 C-6.02900116 18.81246979 -7.12074646 18.80438293 -8.24557495 18.79605103 C-10.95336914 18.40405273 -10.95336914 18.40405273 -12.80227661 17.05380249 C-14.55032661 14.54849124 -14.38717362 12.41960074 -14.39086914 9.40405273 C-14.41020508 8.35217773 -14.42954102 7.30030273 -14.44946289 6.21655273 C-13.95336914 3.40405273 -13.95336914 3.40405273 -12.54444885 1.75352478 C-8.48417965 -0.36112255 -4.51225895 -0.02130582 0 0 Z " fill="#FFFFFF" transform="translate(231.953369140625,474.595947265625)"/>
<path d="M0 0 C4.33155977 1.86705162 5.5647727 3.23109844 7.875 7.3125 C9.87610598 13.8716807 9.29008856 18.18088773 6.36328125 24.203125 C4.5084481 26.64789076 2.78104546 27.70191655 0 29 C-3.15625 29.3984375 -3.15625 29.3984375 -6.5 29.375 C-7.6034375 29.38273438 -8.706875 29.39046875 -9.84375 29.3984375 C-14.53344941 28.80642099 -17.98509465 26.61788641 -21 23 C-22.94892318 17.15323045 -22.99344445 11.06047738 -20.3125 5.5 C-14.40186527 -0.88987539 -8.30039457 -0.91878581 0 0 Z M-13 9 C-15.32749345 12.49124017 -15.50299316 13.89222251 -15 18 C-13.69138543 20.55985074 -13.69138543 20.55985074 -11 22 C-7.18440059 22.61297536 -3.50508754 23.06931609 -0.24609375 20.75390625 C1.33016011 18.53529189 1.40203541 17.20354144 1.375 14.5 C1.38273438 13.7265625 1.39046875 12.953125 1.3984375 12.15625 C0.90631824 9.49301635 0.12570206 8.63438413 -2 7 C-6.7528764 5.5534724 -9.08397375 5.95420181 -13 9 Z " fill="#E3412A" transform="translate(521,616)"/>
<path d="M0 0 C1.12921875 0.11794922 1.12921875 0.11794922 2.28125 0.23828125 C4.62887164 0.71359197 6.41514781 1.52661639 8.5 2.6875 C7.625 6.5625 7.625 6.5625 6.5 7.6875 C4.47591245 7.59747602 2.45455713 7.44108962 0.4375 7.25 C-1.21958984 7.09724609 -1.21958984 7.09724609 -2.91015625 6.94140625 C-3.76480469 6.85761719 -4.61945313 6.77382813 -5.5 6.6875 C-5.5 7.6775 -5.5 8.6675 -5.5 9.6875 C-4.68015625 9.84605469 -3.8603125 10.00460937 -3.015625 10.16796875 C5.73658052 12.06288406 5.73658052 12.06288406 9.25 14.9375 C10.86912736 18.49958019 11.06300961 20.81680896 10.5 24.6875 C8.05498456 28.03807671 5.47490651 29.60343459 1.5 30.6875 C-4.91694401 31.30849458 -8.24387727 30.44187338 -13.5 26.6875 C-13.83 25.6975 -14.16 24.7075 -14.5 23.6875 C-13.51 22.2025 -13.51 22.2025 -12.5 20.6875 C-9.4098995 21.20251675 -6.3265868 21.72084869 -3.25 22.3125 C-0.54447912 22.94472358 -0.54447912 22.94472358 1.5 21.6875 C1.5 21.0275 1.5 20.3675 1.5 19.6875 C0.75234375 19.51734375 0.0046875 19.3471875 -0.765625 19.171875 C-1.75046875 18.92953125 -2.7353125 18.6871875 -3.75 18.4375 C-4.72453125 18.20546875 -5.6990625 17.9734375 -6.703125 17.734375 C-9.87594304 16.54678389 -11.39997585 15.32599189 -13.5 12.6875 C-14.0625 9.25 -14.0625 9.25 -13.5 5.6875 C-9.50361999 0.58101443 -6.28676703 -0.72125581 0 0 Z " fill="#E3412A" transform="translate(461.5,615.3125)"/>
<path d="M0 0 C1 1 1 1 1.125 3.5 C1 6 1 6 0 7 C-2.18639453 7.07258946 -4.37500389 7.08373783 -6.5625 7.0625 C-8.35880859 7.04896484 -8.35880859 7.04896484 -10.19140625 7.03515625 C-11.11824219 7.02355469 -12.04507813 7.01195312 -13 7 C-13 8.65 -13 10.3 -13 12 C-12.14535156 11.98839844 -11.29070313 11.97679687 -10.41015625 11.96484375 C-9.30542969 11.95582031 -8.20070313 11.94679688 -7.0625 11.9375 C-5.96035156 11.92589844 -4.85820313 11.91429687 -3.72265625 11.90234375 C-1 12 -1 12 0 13 C0.125 15.5 0.125 15.5 0 18 C-1.73956658 19.73956658 -4.1936622 19.37190386 -6.5625 19.5625 C-7.57441406 19.64628906 -8.58632813 19.73007812 -9.62890625 19.81640625 C-10.41136719 19.87699219 -11.19382812 19.93757812 -12 20 C-12.144375 21.299375 -12.28875 22.59875 -12.4375 23.9375 C-12.875 27.875 -12.875 27.875 -14 29 C-15.99958364 29.04080783 -18.00045254 29.04254356 -20 29 C-20.05783842 24.70838953 -20.0935412 20.41687855 -20.125 16.125 C-20.14175781 14.90167969 -20.15851562 13.67835938 -20.17578125 12.41796875 C-20.18222656 11.25136719 -20.18867187 10.08476563 -20.1953125 8.8828125 C-20.20578613 7.80402832 -20.21625977 6.72524414 -20.22705078 5.61376953 C-20 3 -20 3 -18 1 C-15.390625 0.5859375 -15.390625 0.5859375 -12.25 0.375 C-11.22390625 0.30023437 -10.1978125 0.22546875 -9.140625 0.1484375 C-6.08202963 0.00387702 -3.0609008 -0.09845003 0 0 Z " fill="#E3412A" transform="translate(579,616)"/>
<path d="M0 0 C2.8100346 1.79363911 4.50940468 3.01880935 6 6 C6.55512815 10.63213493 6.6364242 13.98172127 4.125 18 C0.59185943 21.32530877 -2.04661263 21.33074386 -6.73828125 21.29296875 C-10.0542278 20.86344199 -11.74987627 19.39075646 -14 17 C-15.73631636 13.52736727 -15.60190402 9.78806987 -15 6 C-10.71088551 0.58217117 -6.85343514 -0.98468896 0 0 Z " fill="#ED3F34" transform="translate(666,407)"/>
<path d="M0 0 C2.8100346 1.79363911 4.50940468 3.01880935 6 6 C6.55512815 10.63213493 6.6364242 13.98172127 4.125 18 C0.59185943 21.32530877 -2.04661263 21.33074386 -6.73828125 21.29296875 C-10.0542278 20.86344199 -11.74987627 19.39075646 -14 17 C-15.73631636 13.52736727 -15.60190402 9.78806987 -15 6 C-10.71088551 0.58217117 -6.85343514 -0.98468896 0 0 Z " fill="#3F87F3" transform="translate(420,407)"/>
<path d="M0 0 C2.6540547 2.13798851 3.95484867 3.64657453 5.25 6.8125 C5.15530733 12.11528931 3.93218754 15.01873102 0.25 18.8125 C-3.22263273 20.54881636 -6.96193013 20.41440402 -10.75 19.8125 C-13.50569447 17.63090855 -15.18588747 15.94072506 -16.75 12.8125 C-17.1251455 7.84182218 -16.90878799 4.76098498 -13.75 0.8125 C-9.62197124 -2.28352157 -4.58439719 -1.97962606 0 0 Z " fill="#F9BD05" transform="translate(585.75,408.1875)"/>
<path d="M0 0 C5.53846154 3.07692308 5.53846154 3.07692308 7 6 C7.55512815 10.63213493 7.6364242 13.98172127 5.125 18 C1.89571928 21.03932303 -0.44480358 21.3917956 -4.89453125 21.359375 C-8.61593453 20.72418186 -10.40312849 18.66020984 -13 16 C-14.53214888 12.93570224 -14.22938548 10.3834358 -14 7 C-12.74544028 4.17724064 -11.71615278 2.53711459 -9.25 0.6875 C-5.96856187 -0.31516165 -3.41780831 -0.35356638 0 0 Z " fill="#37A952" transform="translate(501,407)"/>
<path d="M0 0 C0.98033203 -0.01224609 1.96066406 -0.02449219 2.97070312 -0.03710938 C3.90720703 -0.03904297 4.84371094 -0.04097656 5.80859375 -0.04296875 C6.67154053 -0.04707764 7.5344873 -0.05118652 8.42358398 -0.05541992 C10.5625 0.1875 10.5625 0.1875 12.5625 2.1875 C12.1875 4.8125 12.1875 4.8125 11.5625 7.1875 C9.2525 7.1875 6.9425 7.1875 4.5625 7.1875 C4.53744385 7.81841553 4.5123877 8.44933105 4.48657227 9.09936523 C4.37095863 11.94146825 4.24807684 14.78321083 4.125 17.625 C4.08568359 18.61822266 4.04636719 19.61144531 4.00585938 20.63476562 C3.96396484 21.57900391 3.92207031 22.52324219 3.87890625 23.49609375 C3.84224854 24.37064209 3.80559082 25.24519043 3.76782227 26.14624023 C3.5625 28.1875 3.5625 28.1875 2.5625 29.1875 C0.5825 29.1875 -1.3975 29.1875 -3.4375 29.1875 C-3.7675 21.9275 -4.0975 14.6675 -4.4375 7.1875 C-6.4175 7.1875 -8.3975 7.1875 -10.4375 7.1875 C-11.0975 6.5275 -11.7575 5.8675 -12.4375 5.1875 C-11.36604729 -1.88408788 -5.99244334 0.00392432 0 0 Z " fill="#E3412A" transform="translate(618.4375,615.8125)"/>
</svg>
